%TF.GenerationSoftware,KiCad,Pcbnew,(5.1.6)-1*%
%TF.CreationDate,2020-09-21T22:35:42+08:00*%
%TF.ProjectId,Tiny-Hi3861,54696e79-2d48-4693-9338-36312e6b6963,V1.0*%
%TF.SameCoordinates,Original*%
%TF.FileFunction,Legend,Bot*%
%TF.FilePolarity,Positive*%
%FSLAX46Y46*%
G04 Gerber Fmt 4.6, Leading zero omitted, Abs format (unit mm)*
G04 Created by KiCad (PCBNEW (5.1.6)-1) date 2020-09-21 22:35:42*
%MOMM*%
%LPD*%
G01*
G04 APERTURE LIST*
%ADD10C,0.200000*%
%ADD11C,0.300000*%
%ADD12C,0.120000*%
G04 APERTURE END LIST*
D10*
X178857142Y-102542857D02*
X178857142Y-101342857D01*
X178857142Y-101914285D02*
X178171428Y-101914285D01*
X178171428Y-102542857D02*
X178171428Y-101342857D01*
X177085714Y-102542857D02*
X177085714Y-101914285D01*
X177142857Y-101800000D01*
X177257142Y-101742857D01*
X177485714Y-101742857D01*
X177600000Y-101800000D01*
X177085714Y-102485714D02*
X177200000Y-102542857D01*
X177485714Y-102542857D01*
X177600000Y-102485714D01*
X177657142Y-102371428D01*
X177657142Y-102257142D01*
X177600000Y-102142857D01*
X177485714Y-102085714D01*
X177200000Y-102085714D01*
X177085714Y-102028571D01*
X176514285Y-102542857D02*
X176514285Y-101742857D01*
X176514285Y-101971428D02*
X176457142Y-101857142D01*
X176400000Y-101800000D01*
X176285714Y-101742857D01*
X176171428Y-101742857D01*
X175771428Y-102542857D02*
X175771428Y-101742857D01*
X175771428Y-101857142D02*
X175714285Y-101800000D01*
X175600000Y-101742857D01*
X175428571Y-101742857D01*
X175314285Y-101800000D01*
X175257142Y-101914285D01*
X175257142Y-102542857D01*
X175257142Y-101914285D02*
X175200000Y-101800000D01*
X175085714Y-101742857D01*
X174914285Y-101742857D01*
X174800000Y-101800000D01*
X174742857Y-101914285D01*
X174742857Y-102542857D01*
X174000000Y-102542857D02*
X174114285Y-102485714D01*
X174171428Y-102428571D01*
X174228571Y-102314285D01*
X174228571Y-101971428D01*
X174171428Y-101857142D01*
X174114285Y-101800000D01*
X174000000Y-101742857D01*
X173828571Y-101742857D01*
X173714285Y-101800000D01*
X173657142Y-101857142D01*
X173600000Y-101971428D01*
X173600000Y-102314285D01*
X173657142Y-102428571D01*
X173714285Y-102485714D01*
X173828571Y-102542857D01*
X174000000Y-102542857D01*
X173085714Y-101742857D02*
X173085714Y-102542857D01*
X173085714Y-101857142D02*
X173028571Y-101800000D01*
X172914285Y-101742857D01*
X172742857Y-101742857D01*
X172628571Y-101800000D01*
X172571428Y-101914285D01*
X172571428Y-102542857D01*
X172114285Y-101742857D02*
X171828571Y-102542857D01*
X171542857Y-101742857D02*
X171828571Y-102542857D01*
X171942857Y-102828571D01*
X172000000Y-102885714D01*
X172114285Y-102942857D01*
X169942857Y-101342857D02*
X169714285Y-101342857D01*
X169600000Y-101400000D01*
X169485714Y-101514285D01*
X169428571Y-101742857D01*
X169428571Y-102142857D01*
X169485714Y-102371428D01*
X169600000Y-102485714D01*
X169714285Y-102542857D01*
X169942857Y-102542857D01*
X170057142Y-102485714D01*
X170171428Y-102371428D01*
X170228571Y-102142857D01*
X170228571Y-101742857D01*
X170171428Y-101514285D01*
X170057142Y-101400000D01*
X169942857Y-101342857D01*
X168971428Y-102485714D02*
X168800000Y-102542857D01*
X168514285Y-102542857D01*
X168400000Y-102485714D01*
X168342857Y-102428571D01*
X168285714Y-102314285D01*
X168285714Y-102200000D01*
X168342857Y-102085714D01*
X168400000Y-102028571D01*
X168514285Y-101971428D01*
X168742857Y-101914285D01*
X168857142Y-101857142D01*
X168914285Y-101800000D01*
X168971428Y-101685714D01*
X168971428Y-101571428D01*
X168914285Y-101457142D01*
X168857142Y-101400000D01*
X168742857Y-101342857D01*
X168457142Y-101342857D01*
X168285714Y-101400000D01*
D11*
X180614285Y-98678571D02*
X179757142Y-98678571D01*
X180185714Y-100178571D02*
X180185714Y-98678571D01*
X179257142Y-100178571D02*
X179257142Y-99178571D01*
X179257142Y-98678571D02*
X179328571Y-98750000D01*
X179257142Y-98821428D01*
X179185714Y-98750000D01*
X179257142Y-98678571D01*
X179257142Y-98821428D01*
X178542857Y-99178571D02*
X178542857Y-100178571D01*
X178542857Y-99321428D02*
X178471428Y-99250000D01*
X178328571Y-99178571D01*
X178114285Y-99178571D01*
X177971428Y-99250000D01*
X177900000Y-99392857D01*
X177900000Y-100178571D01*
X177328571Y-99178571D02*
X176971428Y-100178571D01*
X176614285Y-99178571D02*
X176971428Y-100178571D01*
X177114285Y-100535714D01*
X177185714Y-100607142D01*
X177328571Y-100678571D01*
X176042857Y-99607142D02*
X174900000Y-99607142D01*
X174185714Y-100178571D02*
X174185714Y-98678571D01*
X174185714Y-99392857D02*
X173328571Y-99392857D01*
X173328571Y-100178571D02*
X173328571Y-98678571D01*
X172614285Y-100178571D02*
X172614285Y-99178571D01*
X172614285Y-98678571D02*
X172685714Y-98750000D01*
X172614285Y-98821428D01*
X172542857Y-98750000D01*
X172614285Y-98678571D01*
X172614285Y-98821428D01*
X172042857Y-98678571D02*
X171114285Y-98678571D01*
X171614285Y-99250000D01*
X171400000Y-99250000D01*
X171257142Y-99321428D01*
X171185714Y-99392857D01*
X171114285Y-99535714D01*
X171114285Y-99892857D01*
X171185714Y-100035714D01*
X171257142Y-100107142D01*
X171400000Y-100178571D01*
X171828571Y-100178571D01*
X171971428Y-100107142D01*
X172042857Y-100035714D01*
X170257142Y-99321428D02*
X170400000Y-99250000D01*
X170471428Y-99178571D01*
X170542857Y-99035714D01*
X170542857Y-98964285D01*
X170471428Y-98821428D01*
X170400000Y-98750000D01*
X170257142Y-98678571D01*
X169971428Y-98678571D01*
X169828571Y-98750000D01*
X169757142Y-98821428D01*
X169685714Y-98964285D01*
X169685714Y-99035714D01*
X169757142Y-99178571D01*
X169828571Y-99250000D01*
X169971428Y-99321428D01*
X170257142Y-99321428D01*
X170400000Y-99392857D01*
X170471428Y-99464285D01*
X170542857Y-99607142D01*
X170542857Y-99892857D01*
X170471428Y-100035714D01*
X170400000Y-100107142D01*
X170257142Y-100178571D01*
X169971428Y-100178571D01*
X169828571Y-100107142D01*
X169757142Y-100035714D01*
X169685714Y-99892857D01*
X169685714Y-99607142D01*
X169757142Y-99464285D01*
X169828571Y-99392857D01*
X169971428Y-99321428D01*
X168400000Y-98678571D02*
X168685714Y-98678571D01*
X168828571Y-98750000D01*
X168900000Y-98821428D01*
X169042857Y-99035714D01*
X169114285Y-99321428D01*
X169114285Y-99892857D01*
X169042857Y-100035714D01*
X168971428Y-100107142D01*
X168828571Y-100178571D01*
X168542857Y-100178571D01*
X168400000Y-100107142D01*
X168328571Y-100035714D01*
X168257142Y-99892857D01*
X168257142Y-99535714D01*
X168328571Y-99392857D01*
X168400000Y-99321428D01*
X168542857Y-99250000D01*
X168828571Y-99250000D01*
X168971428Y-99321428D01*
X169042857Y-99392857D01*
X169114285Y-99535714D01*
X166828571Y-100178571D02*
X167685714Y-100178571D01*
X167257142Y-100178571D02*
X167257142Y-98678571D01*
X167400000Y-98892857D01*
X167542857Y-99035714D01*
X167685714Y-99107142D01*
D12*
%TO.C,J2*%
X185480000Y-106670000D02*
X185480000Y-109330000D01*
X167640000Y-106670000D02*
X185480000Y-106670000D01*
X167640000Y-109330000D02*
X185480000Y-109330000D01*
X167640000Y-106670000D02*
X167640000Y-109330000D01*
X166370000Y-106670000D02*
X165040000Y-106670000D01*
X165040000Y-106670000D02*
X165040000Y-108000000D01*
%TO.C,J1*%
X185480000Y-91420000D02*
X185480000Y-94080000D01*
X167640000Y-91420000D02*
X185480000Y-91420000D01*
X167640000Y-94080000D02*
X185480000Y-94080000D01*
X167640000Y-91420000D02*
X167640000Y-94080000D01*
X166370000Y-91420000D02*
X165040000Y-91420000D01*
X165040000Y-91420000D02*
X165040000Y-92750000D01*
%TO.C,K1*%
X157000000Y-100400000D02*
X157000000Y-98400000D01*
X160000000Y-98400000D02*
X160000000Y-102400000D01*
X157000000Y-100400000D02*
X157000000Y-102400000D01*
X160000000Y-98400000D02*
X159700000Y-98400000D01*
X157000000Y-98400000D02*
X157300000Y-98400000D01*
X157000000Y-102400000D02*
X157300000Y-102400000D01*
X160000000Y-102400000D02*
X159700000Y-102400000D01*
X159228011Y-100400000D02*
G75*
G03*
X159228011Y-100400000I-728011J0D01*
G01*
%TO.C,Y1*%
X182543655Y-94012283D02*
X185372082Y-96840710D01*
X180210202Y-96345736D02*
X182543655Y-94012283D01*
%TD*%
M02*
