%TF.GenerationSoftware,KiCad,Pcbnew,(5.1.6)-1*%
%TF.CreationDate,2020-09-21T22:35:42+08:00*%
%TF.ProjectId,Tiny-Hi3861,54696e79-2d48-4693-9338-36312e6b6963,V1.0*%
%TF.SameCoordinates,Original*%
%TF.FileFunction,Copper,L2,Bot*%
%TF.FilePolarity,Positive*%
%FSLAX46Y46*%
G04 Gerber Fmt 4.6, Leading zero omitted, Abs format (unit mm)*
G04 Created by KiCad (PCBNEW (5.1.6)-1) date 2020-09-21 22:35:42*
%MOMM*%
%LPD*%
G01*
G04 APERTURE LIST*
%TA.AperFunction,ComponentPad*%
%ADD10O,1.700000X1.700000*%
%TD*%
%TA.AperFunction,ComponentPad*%
%ADD11R,1.700000X1.700000*%
%TD*%
%TA.AperFunction,SMDPad,CuDef*%
%ADD12R,2.000000X1.350000*%
%TD*%
%TA.AperFunction,Conductor*%
%ADD13C,0.100000*%
%TD*%
%TA.AperFunction,ViaPad*%
%ADD14C,0.500000*%
%TD*%
%TA.AperFunction,ComponentPad*%
%ADD15O,1.600000X1.000000*%
%TD*%
%TA.AperFunction,ComponentPad*%
%ADD16O,2.100000X1.000000*%
%TD*%
%TA.AperFunction,SMDPad,CuDef*%
%ADD17C,0.100000*%
%TD*%
%TA.AperFunction,ViaPad*%
%ADD18C,0.600000*%
%TD*%
%TA.AperFunction,Conductor*%
%ADD19C,0.250000*%
%TD*%
%TA.AperFunction,Conductor*%
%ADD20C,0.150000*%
%TD*%
%TA.AperFunction,Conductor*%
%ADD21C,0.200000*%
%TD*%
G04 APERTURE END LIST*
D10*
%TO.P,J2,8*%
%TO.N,/GPIO2*%
X184150000Y-108000000D03*
%TO.P,J2,7*%
%TO.N,/GPIO1*%
X181610000Y-108000000D03*
%TO.P,J2,6*%
%TO.N,/GPIO0*%
X179070000Y-108000000D03*
%TO.P,J2,5*%
%TO.N,/GPIO14*%
X176530000Y-108000000D03*
%TO.P,J2,4*%
%TO.N,/GPIO13*%
X173990000Y-108000000D03*
%TO.P,J2,3*%
%TO.N,/GPIO12*%
X171450000Y-108000000D03*
%TO.P,J2,2*%
%TO.N,GND*%
X168910000Y-108000000D03*
D11*
%TO.P,J2,1*%
%TO.N,+3V3*%
X166370000Y-108000000D03*
%TD*%
D10*
%TO.P,J1,8*%
%TO.N,/GPIO5*%
X184150000Y-92750000D03*
%TO.P,J1,7*%
%TO.N,/GPIO6*%
X181610000Y-92750000D03*
%TO.P,J1,6*%
%TO.N,/GPIO7*%
X179070000Y-92750000D03*
%TO.P,J1,5*%
%TO.N,/GPIO9*%
X176530000Y-92750000D03*
%TO.P,J1,4*%
%TO.N,/GPIO10*%
X173990000Y-92750000D03*
%TO.P,J1,3*%
%TO.N,/GPIO11*%
X171450000Y-92750000D03*
%TO.P,J1,2*%
%TO.N,GND*%
X168910000Y-92750000D03*
D11*
%TO.P,J1,1*%
%TO.N,+5V*%
X166370000Y-92750000D03*
%TD*%
D12*
%TO.P,K1,K*%
%TO.N,GND*%
X158500000Y-102650000D03*
%TO.P,K1,A*%
%TO.N,/RST*%
X158500000Y-98150000D03*
%TD*%
%TO.P,C5,2*%
%TO.N,/RST*%
%TA.AperFunction,SMDPad,CuDef*%
G36*
G01*
X156172500Y-100010000D02*
X155827500Y-100010000D01*
G75*
G02*
X155680000Y-99862500I0J147500D01*
G01*
X155680000Y-99567500D01*
G75*
G02*
X155827500Y-99420000I147500J0D01*
G01*
X156172500Y-99420000D01*
G75*
G02*
X156320000Y-99567500I0J-147500D01*
G01*
X156320000Y-99862500D01*
G75*
G02*
X156172500Y-100010000I-147500J0D01*
G01*
G37*
%TD.AperFunction*%
%TO.P,C5,1*%
%TO.N,GND*%
%TA.AperFunction,SMDPad,CuDef*%
G36*
G01*
X156172500Y-100980000D02*
X155827500Y-100980000D01*
G75*
G02*
X155680000Y-100832500I0J147500D01*
G01*
X155680000Y-100537500D01*
G75*
G02*
X155827500Y-100390000I147500J0D01*
G01*
X156172500Y-100390000D01*
G75*
G02*
X156320000Y-100537500I0J-147500D01*
G01*
X156320000Y-100832500D01*
G75*
G02*
X156172500Y-100980000I-147500J0D01*
G01*
G37*
%TD.AperFunction*%
%TD*%
%TA.AperFunction,Conductor*%
D13*
%TO.N,GND*%
%TO.C,U1*%
G36*
X177567767Y-99700000D02*
G01*
X175800000Y-101467767D01*
X174032233Y-99700000D01*
X175800000Y-97932233D01*
X177567767Y-99700000D01*
G37*
%TD.AperFunction*%
D14*
X175800000Y-98285786D03*
X176507107Y-98992893D03*
X177214214Y-99700000D03*
X175092893Y-98992893D03*
X175800000Y-99700000D03*
X176507107Y-100407107D03*
X174385786Y-99700000D03*
X175092893Y-100407107D03*
X175800000Y-101114214D03*
%TD*%
%TO.P,R7,2*%
%TO.N,+3V3*%
%TA.AperFunction,SMDPad,CuDef*%
G36*
G01*
X165130000Y-95622500D02*
X165130000Y-95277500D01*
G75*
G02*
X165277500Y-95130000I147500J0D01*
G01*
X165572500Y-95130000D01*
G75*
G02*
X165720000Y-95277500I0J-147500D01*
G01*
X165720000Y-95622500D01*
G75*
G02*
X165572500Y-95770000I-147500J0D01*
G01*
X165277500Y-95770000D01*
G75*
G02*
X165130000Y-95622500I0J147500D01*
G01*
G37*
%TD.AperFunction*%
%TO.P,R7,1*%
%TO.N,Net-(PWR1-Pad2)*%
%TA.AperFunction,SMDPad,CuDef*%
G36*
G01*
X164160000Y-95622500D02*
X164160000Y-95277500D01*
G75*
G02*
X164307500Y-95130000I147500J0D01*
G01*
X164602500Y-95130000D01*
G75*
G02*
X164750000Y-95277500I0J-147500D01*
G01*
X164750000Y-95622500D01*
G75*
G02*
X164602500Y-95770000I-147500J0D01*
G01*
X164307500Y-95770000D01*
G75*
G02*
X164160000Y-95622500I0J147500D01*
G01*
G37*
%TD.AperFunction*%
%TD*%
D15*
%TO.P,J3,S1*%
%TO.N,GND*%
X157075000Y-104670000D03*
X157075000Y-96030000D03*
D16*
X161255000Y-104670000D03*
X161255000Y-96030000D03*
%TD*%
%TO.P,C7,2*%
%TO.N,+3V3*%
%TA.AperFunction,SMDPad,CuDef*%
G36*
G01*
X175686500Y-95060000D02*
X175341500Y-95060000D01*
G75*
G02*
X175194000Y-94912500I0J147500D01*
G01*
X175194000Y-94617500D01*
G75*
G02*
X175341500Y-94470000I147500J0D01*
G01*
X175686500Y-94470000D01*
G75*
G02*
X175834000Y-94617500I0J-147500D01*
G01*
X175834000Y-94912500D01*
G75*
G02*
X175686500Y-95060000I-147500J0D01*
G01*
G37*
%TD.AperFunction*%
%TO.P,C7,1*%
%TO.N,GND*%
%TA.AperFunction,SMDPad,CuDef*%
G36*
G01*
X175686500Y-96030000D02*
X175341500Y-96030000D01*
G75*
G02*
X175194000Y-95882500I0J147500D01*
G01*
X175194000Y-95587500D01*
G75*
G02*
X175341500Y-95440000I147500J0D01*
G01*
X175686500Y-95440000D01*
G75*
G02*
X175834000Y-95587500I0J-147500D01*
G01*
X175834000Y-95882500D01*
G75*
G02*
X175686500Y-96030000I-147500J0D01*
G01*
G37*
%TD.AperFunction*%
%TD*%
%TA.AperFunction,SMDPad,CuDef*%
D17*
%TO.P,Y1,4*%
%TO.N,GND*%
G36*
X180493045Y-96345735D02*
G01*
X181341573Y-95497207D01*
X182331523Y-96487157D01*
X181482995Y-97335685D01*
X180493045Y-96345735D01*
G37*
%TD.AperFunction*%
%TA.AperFunction,SMDPad,CuDef*%
%TO.P,Y1,3*%
%TO.N,/XOUT*%
G36*
X182048680Y-97901370D02*
G01*
X182897208Y-97052842D01*
X183887158Y-98042792D01*
X183038630Y-98891320D01*
X182048680Y-97901370D01*
G37*
%TD.AperFunction*%
%TA.AperFunction,SMDPad,CuDef*%
%TO.P,Y1,2*%
%TO.N,GND*%
G36*
X183250761Y-96699289D02*
G01*
X184099289Y-95850761D01*
X185089239Y-96840711D01*
X184240711Y-97689239D01*
X183250761Y-96699289D01*
G37*
%TD.AperFunction*%
%TA.AperFunction,SMDPad,CuDef*%
%TO.P,Y1,1*%
%TO.N,/XIN*%
G36*
X181695126Y-95143654D02*
G01*
X182543654Y-94295126D01*
X183533604Y-95285076D01*
X182685076Y-96133604D01*
X181695126Y-95143654D01*
G37*
%TD.AperFunction*%
%TD*%
%TO.P,C3,2*%
%TO.N,GND*%
%TA.AperFunction,SMDPad,CuDef*%
G36*
G01*
X183413674Y-99402375D02*
X183657625Y-99646327D01*
G75*
G02*
X183657625Y-99854923I-104298J-104298D01*
G01*
X183449029Y-100063519D01*
G75*
G02*
X183240433Y-100063519I-104298J104298D01*
G01*
X182996481Y-99819567D01*
G75*
G02*
X182996481Y-99610971I104298J104298D01*
G01*
X183205077Y-99402375D01*
G75*
G02*
X183413673Y-99402375I104298J-104298D01*
G01*
G37*
%TD.AperFunction*%
%TO.P,C3,1*%
%TO.N,/XOUT*%
%TA.AperFunction,SMDPad,CuDef*%
G36*
G01*
X184099568Y-98716481D02*
X184343519Y-98960433D01*
G75*
G02*
X184343519Y-99169029I-104298J-104298D01*
G01*
X184134923Y-99377625D01*
G75*
G02*
X183926327Y-99377625I-104298J104298D01*
G01*
X183682375Y-99133673D01*
G75*
G02*
X183682375Y-98925077I104298J104298D01*
G01*
X183890971Y-98716481D01*
G75*
G02*
X184099567Y-98716481I104298J-104298D01*
G01*
G37*
%TD.AperFunction*%
%TD*%
%TO.P,C2,2*%
%TO.N,GND*%
%TA.AperFunction,SMDPad,CuDef*%
G36*
G01*
X180403674Y-94722375D02*
X180647625Y-94966327D01*
G75*
G02*
X180647625Y-95174923I-104298J-104298D01*
G01*
X180439029Y-95383519D01*
G75*
G02*
X180230433Y-95383519I-104298J104298D01*
G01*
X179986481Y-95139567D01*
G75*
G02*
X179986481Y-94930971I104298J104298D01*
G01*
X180195077Y-94722375D01*
G75*
G02*
X180403673Y-94722375I104298J-104298D01*
G01*
G37*
%TD.AperFunction*%
%TO.P,C2,1*%
%TO.N,/XIN*%
%TA.AperFunction,SMDPad,CuDef*%
G36*
G01*
X181089568Y-94036481D02*
X181333519Y-94280433D01*
G75*
G02*
X181333519Y-94489029I-104298J-104298D01*
G01*
X181124923Y-94697625D01*
G75*
G02*
X180916327Y-94697625I-104298J104298D01*
G01*
X180672375Y-94453673D01*
G75*
G02*
X180672375Y-94245077I104298J104298D01*
G01*
X180880971Y-94036481D01*
G75*
G02*
X181089567Y-94036481I104298J-104298D01*
G01*
G37*
%TD.AperFunction*%
%TD*%
%TO.P,R1,2*%
%TO.N,/RST*%
%TA.AperFunction,SMDPad,CuDef*%
G36*
G01*
X174071500Y-95440000D02*
X174416500Y-95440000D01*
G75*
G02*
X174564000Y-95587500I0J-147500D01*
G01*
X174564000Y-95882500D01*
G75*
G02*
X174416500Y-96030000I-147500J0D01*
G01*
X174071500Y-96030000D01*
G75*
G02*
X173924000Y-95882500I0J147500D01*
G01*
X173924000Y-95587500D01*
G75*
G02*
X174071500Y-95440000I147500J0D01*
G01*
G37*
%TD.AperFunction*%
%TO.P,R1,1*%
%TO.N,+3V3*%
%TA.AperFunction,SMDPad,CuDef*%
G36*
G01*
X174071500Y-94470000D02*
X174416500Y-94470000D01*
G75*
G02*
X174564000Y-94617500I0J-147500D01*
G01*
X174564000Y-94912500D01*
G75*
G02*
X174416500Y-95060000I-147500J0D01*
G01*
X174071500Y-95060000D01*
G75*
G02*
X173924000Y-94912500I0J147500D01*
G01*
X173924000Y-94617500D01*
G75*
G02*
X174071500Y-94470000I147500J0D01*
G01*
G37*
%TD.AperFunction*%
%TD*%
D18*
%TO.N,/GPIO9*%
X171800000Y-101950000D03*
%TO.N,/GPIO10*%
X172050000Y-102849994D03*
%TO.N,/GPIO11*%
X172650000Y-104050000D03*
%TO.N,GND*%
X167300000Y-100600000D03*
X167500000Y-102450000D03*
X172500000Y-106700000D03*
X166400000Y-96000000D03*
X164600000Y-99000000D03*
X164800000Y-93700000D03*
X160600000Y-99100000D03*
X160620000Y-101780000D03*
X184800000Y-104900000D03*
X184800000Y-104200000D03*
X184800000Y-103500000D03*
X184800000Y-102800000D03*
X184800000Y-102100000D03*
X184800000Y-101400000D03*
X184800000Y-100700000D03*
X184800000Y-100000000D03*
X184800000Y-94400000D03*
X184800000Y-95100000D03*
X184800000Y-95800000D03*
X184800000Y-96500000D03*
X184800000Y-97200000D03*
X184800000Y-97900000D03*
X184800000Y-99300000D03*
X184790000Y-106290000D03*
X166100000Y-97600000D03*
X164270000Y-103900000D03*
X163440000Y-101630000D03*
X175800000Y-106650000D03*
X169100000Y-104950000D03*
X175500000Y-103550000D03*
X176350000Y-95350000D03*
X182850000Y-93750000D03*
X184800000Y-98590000D03*
X170260000Y-94410000D03*
X170220000Y-107090000D03*
X167830000Y-107070000D03*
X173110000Y-105180000D03*
X169050000Y-95980000D03*
X159100000Y-104700000D03*
X181000000Y-103250000D03*
X180500000Y-102700000D03*
X180000000Y-102200000D03*
X179550000Y-101700000D03*
X179850000Y-100350000D03*
X180300000Y-100850000D03*
X180800000Y-101350000D03*
X181250000Y-101900000D03*
X181750000Y-102450000D03*
X182450000Y-102750000D03*
X183000000Y-103200000D03*
X184050000Y-104250000D03*
X181932053Y-104717947D03*
X182882053Y-105667947D03*
%TO.N,/DN*%
X163240001Y-100140001D03*
X165070002Y-103850000D03*
%TO.N,+3V3*%
X176285000Y-103665000D03*
X171550000Y-101000000D03*
X178652365Y-95929992D03*
X180310000Y-99700000D03*
X167000000Y-98100000D03*
X176300000Y-105524990D03*
X166230000Y-104450000D03*
X168240000Y-104710000D03*
X168880000Y-98110000D03*
X172966373Y-96571393D03*
%TO.N,/XIN*%
X182500000Y-95150000D03*
%TO.N,/XOUT*%
X179530000Y-95560000D03*
%TO.N,/RX*%
X164549998Y-99900000D03*
X179690000Y-105250000D03*
%TO.N,/TX*%
X165400000Y-98800000D03*
X178850000Y-105050000D03*
%TO.N,/VDD_BUCK_1P3*%
X171594000Y-98806000D03*
X178570000Y-96840000D03*
%TO.N,/RST*%
X175300003Y-93799997D03*
X171958000Y-96807998D03*
X168180000Y-94300000D03*
%TO.N,Net-(PWR1-Pad2)*%
X163450000Y-96000000D03*
%TO.N,/VDD_PMU_RFLDO1*%
X180610000Y-97830000D03*
X181450004Y-105290000D03*
X182640000Y-102010000D03*
%TD*%
D19*
%TO.N,/GPIO9*%
X176530000Y-92710000D02*
X176090000Y-92710000D01*
D20*
X177379999Y-96020001D02*
X177379999Y-93559999D01*
X174180011Y-96819989D02*
X176580011Y-96819989D01*
X177379999Y-93559999D02*
X176530000Y-92710000D01*
X172910000Y-98090000D02*
X174180011Y-96819989D01*
X176580011Y-96819989D02*
X177379999Y-96020001D01*
X170660000Y-101950000D02*
X170190000Y-101480000D01*
X171800000Y-101950000D02*
X170660000Y-101950000D01*
X170190000Y-98760000D02*
X170860000Y-98090000D01*
X170190000Y-101480000D02*
X170190000Y-98760000D01*
X170860000Y-98090000D02*
X172910000Y-98090000D01*
%TO.N,/GPIO10*%
X171250000Y-94960000D02*
X172870000Y-94960000D01*
X172870000Y-94960000D02*
X173990000Y-93840000D01*
X170520000Y-95690000D02*
X171250000Y-94960000D01*
X170520000Y-97080000D02*
X170520000Y-95690000D01*
X170210000Y-97390000D02*
X170520000Y-97080000D01*
X170099994Y-102849994D02*
X168156260Y-100906260D01*
X172050000Y-102849994D02*
X170099994Y-102849994D01*
X173990000Y-93840000D02*
X173990000Y-92710000D01*
X168156260Y-100906260D02*
X168156260Y-97663740D01*
X168156260Y-97663740D02*
X168430000Y-97390000D01*
X168430000Y-97390000D02*
X170210000Y-97390000D01*
%TO.N,/GPIO11*%
X171450000Y-92710000D02*
X171400000Y-92760000D01*
X172650000Y-104050000D02*
X170700000Y-104050000D01*
X170700000Y-104050000D02*
X167855348Y-101205348D01*
X167855348Y-101205348D02*
X167855348Y-98820527D01*
X167855348Y-98820527D02*
X167856249Y-98819626D01*
X171450000Y-94070000D02*
X171450000Y-92710000D01*
X167855348Y-98820527D02*
X167855348Y-97454652D01*
X169950000Y-95570000D02*
X171450000Y-94070000D01*
X167855348Y-97454652D02*
X168400000Y-96910000D01*
X168400000Y-96910000D02*
X169950000Y-96910000D01*
X169950000Y-96910000D02*
X169950000Y-95570000D01*
%TO.N,GND*%
X184842947Y-97942947D02*
X184800000Y-97900000D01*
X184842947Y-98347053D02*
X184842947Y-97942947D01*
X184530000Y-96770000D02*
X184800000Y-96500000D01*
X184170000Y-96770000D02*
X184530000Y-96770000D01*
X184800000Y-94400000D02*
X184800000Y-97900000D01*
X184800000Y-97900000D02*
X184800000Y-98590000D01*
X184800000Y-99300000D02*
X184800000Y-106200000D01*
X175799999Y-103250001D02*
X175500000Y-103550000D01*
X175800000Y-99700000D02*
X175799999Y-103250001D01*
D21*
X164800000Y-93700000D02*
X165150000Y-94050000D01*
D20*
X184800000Y-98590000D02*
X184800000Y-99300000D01*
%TO.N,/DN*%
X164110000Y-102889998D02*
X165070002Y-103850000D01*
X163240001Y-100140001D02*
X164110000Y-101010000D01*
X164110000Y-101010000D02*
X164110000Y-102889998D01*
D19*
%TO.N,+3V3*%
X166370000Y-107950000D02*
X166350000Y-107950000D01*
X174244000Y-94765000D02*
X175514000Y-94765000D01*
X178920000Y-99700000D02*
X180310000Y-99700000D01*
X176285000Y-103665000D02*
X176285000Y-102335000D01*
X176285000Y-102335000D02*
X178920000Y-99700000D01*
X179486136Y-96763763D02*
X179486136Y-99700000D01*
X178652365Y-95929992D02*
X179486136Y-96763763D01*
X179486136Y-99700000D02*
X180310000Y-99700000D01*
X167000000Y-95600000D02*
X167000000Y-98100000D01*
X165400000Y-95400000D02*
X166800000Y-95400000D01*
X166800000Y-95400000D02*
X167000000Y-95600000D01*
X166250000Y-107850000D02*
X166350000Y-107950000D01*
X166380000Y-104500000D02*
X166250000Y-104630000D01*
X166900000Y-98200000D02*
X163000000Y-98200000D01*
X167000000Y-98100000D02*
X166900000Y-98200000D01*
X163000000Y-98200000D02*
X162450000Y-98750000D01*
X166250000Y-104630000D02*
X166250000Y-107850000D01*
X162450000Y-103200000D02*
X163750000Y-104500000D01*
X163750000Y-104500000D02*
X166380000Y-104500000D01*
X162450000Y-98750000D02*
X162450000Y-103200000D01*
X175850000Y-104100000D02*
X176285000Y-103665000D01*
X175100000Y-104100000D02*
X175850000Y-104100000D01*
X171550000Y-101000000D02*
X172000000Y-101000000D01*
X172000000Y-101000000D02*
X175100000Y-104100000D01*
X174244000Y-94765000D02*
X173524000Y-95485000D01*
X169280000Y-98110000D02*
X168880000Y-98110000D01*
X169280000Y-98110000D02*
X170360000Y-98110000D01*
X170360000Y-98110000D02*
X171040000Y-97430000D01*
X171040000Y-97430000D02*
X172630000Y-97430000D01*
X172966373Y-97093627D02*
X172966373Y-96571393D01*
X172630000Y-97430000D02*
X172966373Y-97093627D01*
X171040000Y-97430000D02*
X171040000Y-96010000D01*
X171040000Y-96010000D02*
X171565000Y-95485000D01*
X171565000Y-95485000D02*
X172125000Y-95485000D01*
X173524000Y-95485000D02*
X172125000Y-95485000D01*
X172125000Y-95485000D02*
X171905000Y-95485000D01*
D20*
X169000000Y-105750000D02*
X168240000Y-104990000D01*
X176300000Y-105524990D02*
X176074990Y-105750000D01*
X168240000Y-104990000D02*
X168240000Y-104710000D01*
X176074990Y-105750000D02*
X169000000Y-105750000D01*
%TO.N,/XIN*%
X181767053Y-94367053D02*
X182614365Y-95214365D01*
X181002947Y-94367053D02*
X181767053Y-94367053D01*
D19*
%TO.N,/XOUT*%
X184028785Y-99032947D02*
X182967919Y-97972081D01*
X184157053Y-99032947D02*
X184028785Y-99032947D01*
D20*
X179530000Y-95990000D02*
X179530000Y-95560000D01*
X181350000Y-97810000D02*
X179530000Y-95990000D01*
X182967919Y-97972081D02*
X182805838Y-97810000D01*
X182805838Y-97810000D02*
X181350000Y-97810000D01*
%TO.N,/RX*%
X178840000Y-106100000D02*
X179390001Y-105549999D01*
X168736998Y-106100000D02*
X178840000Y-106100000D01*
X179390001Y-105549999D02*
X179690000Y-105250000D01*
X164549998Y-99900000D02*
X164549998Y-101913000D01*
X164549998Y-101913000D02*
X168736998Y-106100000D01*
%TO.N,/TX*%
X165400000Y-99500000D02*
X170600001Y-104700001D01*
X178500001Y-104700001D02*
X178850000Y-105050000D01*
X165400000Y-98800000D02*
X165400000Y-99500000D01*
X170600001Y-104700001D02*
X178500001Y-104700001D01*
%TO.N,/VDD_BUCK_1P3*%
X174630000Y-97220000D02*
X178190000Y-97220000D01*
X171594000Y-98806000D02*
X173044000Y-98806000D01*
X178190000Y-97220000D02*
X178570000Y-96840000D01*
X173044000Y-98806000D02*
X174630000Y-97220000D01*
D19*
%TO.N,/RST*%
X175300000Y-93800000D02*
X175300000Y-93800000D01*
D20*
X171958000Y-96202000D02*
X171958000Y-96807998D01*
X174244000Y-95735000D02*
X174029000Y-95950000D01*
X172210000Y-95950000D02*
X171958000Y-96202000D01*
X174029000Y-95950000D02*
X172210000Y-95950000D01*
X175420006Y-93920000D02*
X175300003Y-93799997D01*
X176290000Y-93920000D02*
X175420006Y-93920000D01*
X176900000Y-94530000D02*
X176290000Y-93920000D01*
X174244000Y-96224000D02*
X174439978Y-96419978D01*
X174244000Y-95735000D02*
X174244000Y-96224000D01*
X174439978Y-96419978D02*
X176430022Y-96419978D01*
X176430022Y-96419978D02*
X176900000Y-95950000D01*
X176900000Y-95950000D02*
X176900000Y-94530000D01*
X167680000Y-94800000D02*
X168180000Y-94300000D01*
X158600000Y-98660000D02*
X158600000Y-96400000D01*
X167680000Y-94800000D02*
X164000000Y-94800000D01*
X164000000Y-94800000D02*
X163700000Y-95100000D01*
X163700000Y-95100000D02*
X159900000Y-95100000D01*
X158600000Y-96400000D02*
X159900000Y-95100000D01*
X158500000Y-98150000D02*
X156350000Y-98150000D01*
X156000000Y-98500000D02*
X156000000Y-99715000D01*
X156350000Y-98150000D02*
X156000000Y-98500000D01*
D19*
%TO.N,Net-(PWR1-Pad2)*%
X164150000Y-96000000D02*
X163450000Y-96000000D01*
X164465000Y-95685000D02*
X164150000Y-96000000D01*
D20*
%TO.N,/VDD_PMU_RFLDO1*%
X182290000Y-105290000D02*
X183550000Y-104030000D01*
X183550000Y-104030000D02*
X183550000Y-102550000D01*
X181450004Y-105290000D02*
X182290000Y-105290000D01*
X183550000Y-102550000D02*
X183010000Y-102010000D01*
X183010000Y-102010000D02*
X182640000Y-102010000D01*
X182640000Y-99860000D02*
X180610000Y-97830000D01*
X182640000Y-102010000D02*
X182640000Y-99860000D01*
%TD*%
D21*
%TO.N,GND*%
G36*
X180315101Y-97305431D02*
G01*
X180227522Y-97363950D01*
X180143950Y-97447522D01*
X180078287Y-97545793D01*
X180033058Y-97654986D01*
X180010000Y-97770905D01*
X180010000Y-97889095D01*
X180033058Y-98005014D01*
X180078287Y-98114207D01*
X180143950Y-98212478D01*
X180227522Y-98296050D01*
X180325793Y-98361713D01*
X180434986Y-98406942D01*
X180550905Y-98430000D01*
X180669095Y-98430000D01*
X180677916Y-98428245D01*
X182265001Y-100015331D01*
X182265000Y-101538953D01*
X182257522Y-101543950D01*
X182173950Y-101627522D01*
X182108287Y-101725793D01*
X182063058Y-101834986D01*
X182040000Y-101950905D01*
X182040000Y-102069095D01*
X182063058Y-102185014D01*
X182108287Y-102294207D01*
X182173950Y-102392478D01*
X182257522Y-102476050D01*
X182355793Y-102541713D01*
X182464986Y-102586942D01*
X182580905Y-102610000D01*
X182699095Y-102610000D01*
X182815014Y-102586942D01*
X182924207Y-102541713D01*
X182976465Y-102506795D01*
X183175001Y-102705331D01*
X183175000Y-103874670D01*
X182134671Y-104915000D01*
X181921051Y-104915000D01*
X181916054Y-104907522D01*
X181832482Y-104823950D01*
X181734211Y-104758287D01*
X181625018Y-104713058D01*
X181509099Y-104690000D01*
X181390909Y-104690000D01*
X181274990Y-104713058D01*
X181165797Y-104758287D01*
X181067526Y-104823950D01*
X180983954Y-104907522D01*
X180918291Y-105005793D01*
X180873062Y-105114986D01*
X180850004Y-105230905D01*
X180850004Y-105349095D01*
X180873062Y-105465014D01*
X180918291Y-105574207D01*
X180983954Y-105672478D01*
X181067526Y-105756050D01*
X181165797Y-105821713D01*
X181274990Y-105866942D01*
X181390909Y-105890000D01*
X181509099Y-105890000D01*
X181625018Y-105866942D01*
X181734211Y-105821713D01*
X181832482Y-105756050D01*
X181916054Y-105672478D01*
X181921051Y-105665000D01*
X182271584Y-105665000D01*
X182290000Y-105666814D01*
X182308416Y-105665000D01*
X182308419Y-105665000D01*
X182363513Y-105659574D01*
X182434200Y-105638131D01*
X182499347Y-105603309D01*
X182556448Y-105556448D01*
X182568195Y-105542134D01*
X183802140Y-104308190D01*
X183816448Y-104296448D01*
X183863309Y-104239347D01*
X183870970Y-104225014D01*
X183898130Y-104174202D01*
X183900681Y-104165793D01*
X183919574Y-104103513D01*
X183925000Y-104048419D01*
X183925000Y-104048417D01*
X183926814Y-104030001D01*
X183925000Y-104011585D01*
X183925000Y-102568415D01*
X183926814Y-102549999D01*
X183922073Y-102501863D01*
X183919574Y-102476487D01*
X183898131Y-102405800D01*
X183863309Y-102340653D01*
X183850463Y-102325000D01*
X183828189Y-102297858D01*
X183828186Y-102297855D01*
X183816448Y-102283552D01*
X183802144Y-102271813D01*
X183288195Y-101757866D01*
X183276448Y-101743552D01*
X183219347Y-101696691D01*
X183154200Y-101661869D01*
X183122594Y-101652281D01*
X183106050Y-101627522D01*
X183022478Y-101543950D01*
X183015000Y-101538953D01*
X183015000Y-100334123D01*
X183096045Y-100416503D01*
X183149340Y-100460240D01*
X183210143Y-100492740D01*
X183276119Y-100512754D01*
X183344731Y-100519511D01*
X183413343Y-100512754D01*
X183479319Y-100492740D01*
X183540121Y-100460240D01*
X183593416Y-100416503D01*
X183721265Y-100286258D01*
X183721265Y-100162514D01*
X183327053Y-99768302D01*
X183312911Y-99782445D01*
X183277555Y-99747089D01*
X183291698Y-99732947D01*
X182897486Y-99338735D01*
X182773742Y-99338735D01*
X182710825Y-99400495D01*
X181495329Y-98185000D01*
X181905994Y-98185000D01*
X182825472Y-99104478D01*
X182871153Y-99141967D01*
X182923270Y-99169824D01*
X182938066Y-99174313D01*
X182932841Y-99179636D01*
X182932841Y-99303380D01*
X183327053Y-99697592D01*
X183341195Y-99683449D01*
X183376551Y-99718805D01*
X183362408Y-99732947D01*
X183756620Y-100127159D01*
X183880364Y-100127159D01*
X184010609Y-99999310D01*
X184054346Y-99946015D01*
X184086846Y-99885213D01*
X184106860Y-99819237D01*
X184113617Y-99750625D01*
X184110055Y-99714455D01*
X184118211Y-99713652D01*
X184202431Y-99688104D01*
X184280049Y-99646616D01*
X184348081Y-99590783D01*
X184556677Y-99382187D01*
X184612510Y-99314155D01*
X184653998Y-99236537D01*
X184679546Y-99152317D01*
X184688172Y-99064731D01*
X184679546Y-98977145D01*
X184653998Y-98892925D01*
X184612510Y-98815307D01*
X184556677Y-98747275D01*
X184312725Y-98503323D01*
X184244693Y-98447490D01*
X184167075Y-98406002D01*
X184082855Y-98380454D01*
X183995269Y-98371828D01*
X183983255Y-98373011D01*
X184100316Y-98255950D01*
X184137805Y-98210269D01*
X184165662Y-98158152D01*
X184182817Y-98101602D01*
X184188609Y-98042792D01*
X184187914Y-98035733D01*
X184240711Y-98040933D01*
X184309323Y-98034175D01*
X184375299Y-98014161D01*
X184436101Y-97981661D01*
X184489396Y-97937924D01*
X184832913Y-97592012D01*
X184832913Y-97468271D01*
X184894783Y-97530141D01*
X184900000Y-97524924D01*
X184900000Y-107123655D01*
X184883082Y-107106737D01*
X184694729Y-106980884D01*
X184485443Y-106894194D01*
X184263265Y-106850000D01*
X184036735Y-106850000D01*
X183814557Y-106894194D01*
X183605271Y-106980884D01*
X183416918Y-107106737D01*
X183256737Y-107266918D01*
X183130884Y-107455271D01*
X183044194Y-107664557D01*
X183000000Y-107886735D01*
X183000000Y-108113265D01*
X183044194Y-108335443D01*
X183130884Y-108544729D01*
X183256737Y-108733082D01*
X183416918Y-108893263D01*
X183427001Y-108900000D01*
X182332999Y-108900000D01*
X182343082Y-108893263D01*
X182503263Y-108733082D01*
X182629116Y-108544729D01*
X182715806Y-108335443D01*
X182760000Y-108113265D01*
X182760000Y-107886735D01*
X182715806Y-107664557D01*
X182629116Y-107455271D01*
X182503263Y-107266918D01*
X182343082Y-107106737D01*
X182154729Y-106980884D01*
X181945443Y-106894194D01*
X181723265Y-106850000D01*
X181496735Y-106850000D01*
X181274557Y-106894194D01*
X181065271Y-106980884D01*
X180876918Y-107106737D01*
X180716737Y-107266918D01*
X180590884Y-107455271D01*
X180504194Y-107664557D01*
X180460000Y-107886735D01*
X180460000Y-108113265D01*
X180504194Y-108335443D01*
X180590884Y-108544729D01*
X180716737Y-108733082D01*
X180876918Y-108893263D01*
X180887001Y-108900000D01*
X179792999Y-108900000D01*
X179803082Y-108893263D01*
X179963263Y-108733082D01*
X180089116Y-108544729D01*
X180175806Y-108335443D01*
X180220000Y-108113265D01*
X180220000Y-107886735D01*
X180175806Y-107664557D01*
X180089116Y-107455271D01*
X179963263Y-107266918D01*
X179803082Y-107106737D01*
X179614729Y-106980884D01*
X179405443Y-106894194D01*
X179183265Y-106850000D01*
X178956735Y-106850000D01*
X178734557Y-106894194D01*
X178525271Y-106980884D01*
X178336918Y-107106737D01*
X178176737Y-107266918D01*
X178050884Y-107455271D01*
X177964194Y-107664557D01*
X177920000Y-107886735D01*
X177920000Y-108113265D01*
X177964194Y-108335443D01*
X178050884Y-108544729D01*
X178176737Y-108733082D01*
X178336918Y-108893263D01*
X178347001Y-108900000D01*
X177252999Y-108900000D01*
X177263082Y-108893263D01*
X177423263Y-108733082D01*
X177549116Y-108544729D01*
X177635806Y-108335443D01*
X177680000Y-108113265D01*
X177680000Y-107886735D01*
X177635806Y-107664557D01*
X177549116Y-107455271D01*
X177423263Y-107266918D01*
X177263082Y-107106737D01*
X177074729Y-106980884D01*
X176865443Y-106894194D01*
X176643265Y-106850000D01*
X176416735Y-106850000D01*
X176194557Y-106894194D01*
X175985271Y-106980884D01*
X175796918Y-107106737D01*
X175636737Y-107266918D01*
X175510884Y-107455271D01*
X175424194Y-107664557D01*
X175380000Y-107886735D01*
X175380000Y-108113265D01*
X175424194Y-108335443D01*
X175510884Y-108544729D01*
X175636737Y-108733082D01*
X175796918Y-108893263D01*
X175807001Y-108900000D01*
X174712999Y-108900000D01*
X174723082Y-108893263D01*
X174883263Y-108733082D01*
X175009116Y-108544729D01*
X175095806Y-108335443D01*
X175140000Y-108113265D01*
X175140000Y-107886735D01*
X175095806Y-107664557D01*
X175009116Y-107455271D01*
X174883263Y-107266918D01*
X174723082Y-107106737D01*
X174534729Y-106980884D01*
X174325443Y-106894194D01*
X174103265Y-106850000D01*
X173876735Y-106850000D01*
X173654557Y-106894194D01*
X173445271Y-106980884D01*
X173256918Y-107106737D01*
X173096737Y-107266918D01*
X172970884Y-107455271D01*
X172884194Y-107664557D01*
X172840000Y-107886735D01*
X172840000Y-108113265D01*
X172884194Y-108335443D01*
X172970884Y-108544729D01*
X173096737Y-108733082D01*
X173256918Y-108893263D01*
X173267001Y-108900000D01*
X172172999Y-108900000D01*
X172183082Y-108893263D01*
X172343263Y-108733082D01*
X172469116Y-108544729D01*
X172555806Y-108335443D01*
X172600000Y-108113265D01*
X172600000Y-107886735D01*
X172555806Y-107664557D01*
X172469116Y-107455271D01*
X172343263Y-107266918D01*
X172183082Y-107106737D01*
X171994729Y-106980884D01*
X171785443Y-106894194D01*
X171563265Y-106850000D01*
X171336735Y-106850000D01*
X171114557Y-106894194D01*
X170905271Y-106980884D01*
X170716918Y-107106737D01*
X170556737Y-107266918D01*
X170430884Y-107455271D01*
X170344194Y-107664557D01*
X170300000Y-107886735D01*
X170300000Y-108113265D01*
X170344194Y-108335443D01*
X170430884Y-108544729D01*
X170556737Y-108733082D01*
X170716918Y-108893263D01*
X170727001Y-108900000D01*
X169695085Y-108900000D01*
X169774026Y-108832742D01*
X169919884Y-108648178D01*
X170026933Y-108438705D01*
X170091059Y-108212373D01*
X170022241Y-108025000D01*
X168935000Y-108025000D01*
X168935000Y-108045000D01*
X168885000Y-108045000D01*
X168885000Y-108025000D01*
X167797759Y-108025000D01*
X167728941Y-108212373D01*
X167793067Y-108438705D01*
X167900116Y-108648178D01*
X168045974Y-108832742D01*
X168124915Y-108900000D01*
X167516527Y-108900000D01*
X167521451Y-108850000D01*
X167521451Y-107787627D01*
X167728941Y-107787627D01*
X167797759Y-107975000D01*
X168885000Y-107975000D01*
X168885000Y-106887781D01*
X168935000Y-106887781D01*
X168935000Y-107975000D01*
X170022241Y-107975000D01*
X170091059Y-107787627D01*
X170026933Y-107561295D01*
X169919884Y-107351822D01*
X169774026Y-107167258D01*
X169594964Y-107014696D01*
X169389579Y-106899998D01*
X169165764Y-106827573D01*
X169122373Y-106818942D01*
X168935000Y-106887781D01*
X168885000Y-106887781D01*
X168697627Y-106818942D01*
X168654236Y-106827573D01*
X168430421Y-106899998D01*
X168225036Y-107014696D01*
X168045974Y-107167258D01*
X167900116Y-107351822D01*
X167793067Y-107561295D01*
X167728941Y-107787627D01*
X167521451Y-107787627D01*
X167521451Y-107150000D01*
X167515659Y-107091190D01*
X167498504Y-107034640D01*
X167470647Y-106982523D01*
X167433158Y-106936842D01*
X167387477Y-106899353D01*
X167335360Y-106871496D01*
X167278810Y-106854341D01*
X167220000Y-106848549D01*
X166675000Y-106848549D01*
X166675000Y-104853528D01*
X166696050Y-104832478D01*
X166761713Y-104734207D01*
X166784899Y-104678231D01*
X168458807Y-106352139D01*
X168470550Y-106366448D01*
X168527651Y-106413309D01*
X168592798Y-106448131D01*
X168663485Y-106469574D01*
X168718579Y-106475000D01*
X168718581Y-106475000D01*
X168736997Y-106476814D01*
X168755413Y-106475000D01*
X178821584Y-106475000D01*
X178840000Y-106476814D01*
X178858416Y-106475000D01*
X178858419Y-106475000D01*
X178913513Y-106469574D01*
X178984200Y-106448131D01*
X179049347Y-106413309D01*
X179106448Y-106366448D01*
X179118195Y-106352134D01*
X179622084Y-105848245D01*
X179630905Y-105850000D01*
X179749095Y-105850000D01*
X179865014Y-105826942D01*
X179974207Y-105781713D01*
X180072478Y-105716050D01*
X180156050Y-105632478D01*
X180221713Y-105534207D01*
X180266942Y-105425014D01*
X180290000Y-105309095D01*
X180290000Y-105190905D01*
X180266942Y-105074986D01*
X180221713Y-104965793D01*
X180156050Y-104867522D01*
X180072478Y-104783950D01*
X179974207Y-104718287D01*
X179865014Y-104673058D01*
X179749095Y-104650000D01*
X179630905Y-104650000D01*
X179514986Y-104673058D01*
X179405793Y-104718287D01*
X179367201Y-104744074D01*
X179316050Y-104667522D01*
X179232478Y-104583950D01*
X179134207Y-104518287D01*
X179025014Y-104473058D01*
X178909095Y-104450000D01*
X178790905Y-104450000D01*
X178782084Y-104451755D01*
X178778196Y-104447867D01*
X178766449Y-104433553D01*
X178709348Y-104386692D01*
X178644201Y-104351870D01*
X178573514Y-104330427D01*
X178518420Y-104325001D01*
X178518417Y-104325001D01*
X178500001Y-104323187D01*
X178481585Y-104325001D01*
X176226039Y-104325001D01*
X176286040Y-104265000D01*
X176344095Y-104265000D01*
X176460014Y-104241942D01*
X176569207Y-104196713D01*
X176667478Y-104131050D01*
X176751050Y-104047478D01*
X176816713Y-103949207D01*
X176861942Y-103840014D01*
X176885000Y-103724095D01*
X176885000Y-103605905D01*
X176861942Y-103489986D01*
X176816713Y-103380793D01*
X176751050Y-103282522D01*
X176710000Y-103241472D01*
X176710000Y-102511040D01*
X179096041Y-100125000D01*
X179465262Y-100125000D01*
X179486136Y-100127056D01*
X179507010Y-100125000D01*
X179886472Y-100125000D01*
X179927522Y-100166050D01*
X180025793Y-100231713D01*
X180134986Y-100276942D01*
X180250905Y-100300000D01*
X180369095Y-100300000D01*
X180485014Y-100276942D01*
X180594207Y-100231713D01*
X180692478Y-100166050D01*
X180776050Y-100082478D01*
X180841713Y-99984207D01*
X180886942Y-99875014D01*
X180910000Y-99759095D01*
X180910000Y-99640905D01*
X180886942Y-99524986D01*
X180841713Y-99415793D01*
X180776050Y-99317522D01*
X180692478Y-99233950D01*
X180594207Y-99168287D01*
X180485014Y-99123058D01*
X180369095Y-99100000D01*
X180250905Y-99100000D01*
X180134986Y-99123058D01*
X180025793Y-99168287D01*
X179927522Y-99233950D01*
X179911136Y-99250336D01*
X179911136Y-96901465D01*
X180315101Y-97305431D01*
G37*
X180315101Y-97305431D02*
X180227522Y-97363950D01*
X180143950Y-97447522D01*
X180078287Y-97545793D01*
X180033058Y-97654986D01*
X180010000Y-97770905D01*
X180010000Y-97889095D01*
X180033058Y-98005014D01*
X180078287Y-98114207D01*
X180143950Y-98212478D01*
X180227522Y-98296050D01*
X180325793Y-98361713D01*
X180434986Y-98406942D01*
X180550905Y-98430000D01*
X180669095Y-98430000D01*
X180677916Y-98428245D01*
X182265001Y-100015331D01*
X182265000Y-101538953D01*
X182257522Y-101543950D01*
X182173950Y-101627522D01*
X182108287Y-101725793D01*
X182063058Y-101834986D01*
X182040000Y-101950905D01*
X182040000Y-102069095D01*
X182063058Y-102185014D01*
X182108287Y-102294207D01*
X182173950Y-102392478D01*
X182257522Y-102476050D01*
X182355793Y-102541713D01*
X182464986Y-102586942D01*
X182580905Y-102610000D01*
X182699095Y-102610000D01*
X182815014Y-102586942D01*
X182924207Y-102541713D01*
X182976465Y-102506795D01*
X183175001Y-102705331D01*
X183175000Y-103874670D01*
X182134671Y-104915000D01*
X181921051Y-104915000D01*
X181916054Y-104907522D01*
X181832482Y-104823950D01*
X181734211Y-104758287D01*
X181625018Y-104713058D01*
X181509099Y-104690000D01*
X181390909Y-104690000D01*
X181274990Y-104713058D01*
X181165797Y-104758287D01*
X181067526Y-104823950D01*
X180983954Y-104907522D01*
X180918291Y-105005793D01*
X180873062Y-105114986D01*
X180850004Y-105230905D01*
X180850004Y-105349095D01*
X180873062Y-105465014D01*
X180918291Y-105574207D01*
X180983954Y-105672478D01*
X181067526Y-105756050D01*
X181165797Y-105821713D01*
X181274990Y-105866942D01*
X181390909Y-105890000D01*
X181509099Y-105890000D01*
X181625018Y-105866942D01*
X181734211Y-105821713D01*
X181832482Y-105756050D01*
X181916054Y-105672478D01*
X181921051Y-105665000D01*
X182271584Y-105665000D01*
X182290000Y-105666814D01*
X182308416Y-105665000D01*
X182308419Y-105665000D01*
X182363513Y-105659574D01*
X182434200Y-105638131D01*
X182499347Y-105603309D01*
X182556448Y-105556448D01*
X182568195Y-105542134D01*
X183802140Y-104308190D01*
X183816448Y-104296448D01*
X183863309Y-104239347D01*
X183870970Y-104225014D01*
X183898130Y-104174202D01*
X183900681Y-104165793D01*
X183919574Y-104103513D01*
X183925000Y-104048419D01*
X183925000Y-104048417D01*
X183926814Y-104030001D01*
X183925000Y-104011585D01*
X183925000Y-102568415D01*
X183926814Y-102549999D01*
X183922073Y-102501863D01*
X183919574Y-102476487D01*
X183898131Y-102405800D01*
X183863309Y-102340653D01*
X183850463Y-102325000D01*
X183828189Y-102297858D01*
X183828186Y-102297855D01*
X183816448Y-102283552D01*
X183802144Y-102271813D01*
X183288195Y-101757866D01*
X183276448Y-101743552D01*
X183219347Y-101696691D01*
X183154200Y-101661869D01*
X183122594Y-101652281D01*
X183106050Y-101627522D01*
X183022478Y-101543950D01*
X183015000Y-101538953D01*
X183015000Y-100334123D01*
X183096045Y-100416503D01*
X183149340Y-100460240D01*
X183210143Y-100492740D01*
X183276119Y-100512754D01*
X183344731Y-100519511D01*
X183413343Y-100512754D01*
X183479319Y-100492740D01*
X183540121Y-100460240D01*
X183593416Y-100416503D01*
X183721265Y-100286258D01*
X183721265Y-100162514D01*
X183327053Y-99768302D01*
X183312911Y-99782445D01*
X183277555Y-99747089D01*
X183291698Y-99732947D01*
X182897486Y-99338735D01*
X182773742Y-99338735D01*
X182710825Y-99400495D01*
X181495329Y-98185000D01*
X181905994Y-98185000D01*
X182825472Y-99104478D01*
X182871153Y-99141967D01*
X182923270Y-99169824D01*
X182938066Y-99174313D01*
X182932841Y-99179636D01*
X182932841Y-99303380D01*
X183327053Y-99697592D01*
X183341195Y-99683449D01*
X183376551Y-99718805D01*
X183362408Y-99732947D01*
X183756620Y-100127159D01*
X183880364Y-100127159D01*
X184010609Y-99999310D01*
X184054346Y-99946015D01*
X184086846Y-99885213D01*
X184106860Y-99819237D01*
X184113617Y-99750625D01*
X184110055Y-99714455D01*
X184118211Y-99713652D01*
X184202431Y-99688104D01*
X184280049Y-99646616D01*
X184348081Y-99590783D01*
X184556677Y-99382187D01*
X184612510Y-99314155D01*
X184653998Y-99236537D01*
X184679546Y-99152317D01*
X184688172Y-99064731D01*
X184679546Y-98977145D01*
X184653998Y-98892925D01*
X184612510Y-98815307D01*
X184556677Y-98747275D01*
X184312725Y-98503323D01*
X184244693Y-98447490D01*
X184167075Y-98406002D01*
X184082855Y-98380454D01*
X183995269Y-98371828D01*
X183983255Y-98373011D01*
X184100316Y-98255950D01*
X184137805Y-98210269D01*
X184165662Y-98158152D01*
X184182817Y-98101602D01*
X184188609Y-98042792D01*
X184187914Y-98035733D01*
X184240711Y-98040933D01*
X184309323Y-98034175D01*
X184375299Y-98014161D01*
X184436101Y-97981661D01*
X184489396Y-97937924D01*
X184832913Y-97592012D01*
X184832913Y-97468271D01*
X184894783Y-97530141D01*
X184900000Y-97524924D01*
X184900000Y-107123655D01*
X184883082Y-107106737D01*
X184694729Y-106980884D01*
X184485443Y-106894194D01*
X184263265Y-106850000D01*
X184036735Y-106850000D01*
X183814557Y-106894194D01*
X183605271Y-106980884D01*
X183416918Y-107106737D01*
X183256737Y-107266918D01*
X183130884Y-107455271D01*
X183044194Y-107664557D01*
X183000000Y-107886735D01*
X183000000Y-108113265D01*
X183044194Y-108335443D01*
X183130884Y-108544729D01*
X183256737Y-108733082D01*
X183416918Y-108893263D01*
X183427001Y-108900000D01*
X182332999Y-108900000D01*
X182343082Y-108893263D01*
X182503263Y-108733082D01*
X182629116Y-108544729D01*
X182715806Y-108335443D01*
X182760000Y-108113265D01*
X182760000Y-107886735D01*
X182715806Y-107664557D01*
X182629116Y-107455271D01*
X182503263Y-107266918D01*
X182343082Y-107106737D01*
X182154729Y-106980884D01*
X181945443Y-106894194D01*
X181723265Y-106850000D01*
X181496735Y-106850000D01*
X181274557Y-106894194D01*
X181065271Y-106980884D01*
X180876918Y-107106737D01*
X180716737Y-107266918D01*
X180590884Y-107455271D01*
X180504194Y-107664557D01*
X180460000Y-107886735D01*
X180460000Y-108113265D01*
X180504194Y-108335443D01*
X180590884Y-108544729D01*
X180716737Y-108733082D01*
X180876918Y-108893263D01*
X180887001Y-108900000D01*
X179792999Y-108900000D01*
X179803082Y-108893263D01*
X179963263Y-108733082D01*
X180089116Y-108544729D01*
X180175806Y-108335443D01*
X180220000Y-108113265D01*
X180220000Y-107886735D01*
X180175806Y-107664557D01*
X180089116Y-107455271D01*
X179963263Y-107266918D01*
X179803082Y-107106737D01*
X179614729Y-106980884D01*
X179405443Y-106894194D01*
X179183265Y-106850000D01*
X178956735Y-106850000D01*
X178734557Y-106894194D01*
X178525271Y-106980884D01*
X178336918Y-107106737D01*
X178176737Y-107266918D01*
X178050884Y-107455271D01*
X177964194Y-107664557D01*
X177920000Y-107886735D01*
X177920000Y-108113265D01*
X177964194Y-108335443D01*
X178050884Y-108544729D01*
X178176737Y-108733082D01*
X178336918Y-108893263D01*
X178347001Y-108900000D01*
X177252999Y-108900000D01*
X177263082Y-108893263D01*
X177423263Y-108733082D01*
X177549116Y-108544729D01*
X177635806Y-108335443D01*
X177680000Y-108113265D01*
X177680000Y-107886735D01*
X177635806Y-107664557D01*
X177549116Y-107455271D01*
X177423263Y-107266918D01*
X177263082Y-107106737D01*
X177074729Y-106980884D01*
X176865443Y-106894194D01*
X176643265Y-106850000D01*
X176416735Y-106850000D01*
X176194557Y-106894194D01*
X175985271Y-106980884D01*
X175796918Y-107106737D01*
X175636737Y-107266918D01*
X175510884Y-107455271D01*
X175424194Y-107664557D01*
X175380000Y-107886735D01*
X175380000Y-108113265D01*
X175424194Y-108335443D01*
X175510884Y-108544729D01*
X175636737Y-108733082D01*
X175796918Y-108893263D01*
X175807001Y-108900000D01*
X174712999Y-108900000D01*
X174723082Y-108893263D01*
X174883263Y-108733082D01*
X175009116Y-108544729D01*
X175095806Y-108335443D01*
X175140000Y-108113265D01*
X175140000Y-107886735D01*
X175095806Y-107664557D01*
X175009116Y-107455271D01*
X174883263Y-107266918D01*
X174723082Y-107106737D01*
X174534729Y-106980884D01*
X174325443Y-106894194D01*
X174103265Y-106850000D01*
X173876735Y-106850000D01*
X173654557Y-106894194D01*
X173445271Y-106980884D01*
X173256918Y-107106737D01*
X173096737Y-107266918D01*
X172970884Y-107455271D01*
X172884194Y-107664557D01*
X172840000Y-107886735D01*
X172840000Y-108113265D01*
X172884194Y-108335443D01*
X172970884Y-108544729D01*
X173096737Y-108733082D01*
X173256918Y-108893263D01*
X173267001Y-108900000D01*
X172172999Y-108900000D01*
X172183082Y-108893263D01*
X172343263Y-108733082D01*
X172469116Y-108544729D01*
X172555806Y-108335443D01*
X172600000Y-108113265D01*
X172600000Y-107886735D01*
X172555806Y-107664557D01*
X172469116Y-107455271D01*
X172343263Y-107266918D01*
X172183082Y-107106737D01*
X171994729Y-106980884D01*
X171785443Y-106894194D01*
X171563265Y-106850000D01*
X171336735Y-106850000D01*
X171114557Y-106894194D01*
X170905271Y-106980884D01*
X170716918Y-107106737D01*
X170556737Y-107266918D01*
X170430884Y-107455271D01*
X170344194Y-107664557D01*
X170300000Y-107886735D01*
X170300000Y-108113265D01*
X170344194Y-108335443D01*
X170430884Y-108544729D01*
X170556737Y-108733082D01*
X170716918Y-108893263D01*
X170727001Y-108900000D01*
X169695085Y-108900000D01*
X169774026Y-108832742D01*
X169919884Y-108648178D01*
X170026933Y-108438705D01*
X170091059Y-108212373D01*
X170022241Y-108025000D01*
X168935000Y-108025000D01*
X168935000Y-108045000D01*
X168885000Y-108045000D01*
X168885000Y-108025000D01*
X167797759Y-108025000D01*
X167728941Y-108212373D01*
X167793067Y-108438705D01*
X167900116Y-108648178D01*
X168045974Y-108832742D01*
X168124915Y-108900000D01*
X167516527Y-108900000D01*
X167521451Y-108850000D01*
X167521451Y-107787627D01*
X167728941Y-107787627D01*
X167797759Y-107975000D01*
X168885000Y-107975000D01*
X168885000Y-106887781D01*
X168935000Y-106887781D01*
X168935000Y-107975000D01*
X170022241Y-107975000D01*
X170091059Y-107787627D01*
X170026933Y-107561295D01*
X169919884Y-107351822D01*
X169774026Y-107167258D01*
X169594964Y-107014696D01*
X169389579Y-106899998D01*
X169165764Y-106827573D01*
X169122373Y-106818942D01*
X168935000Y-106887781D01*
X168885000Y-106887781D01*
X168697627Y-106818942D01*
X168654236Y-106827573D01*
X168430421Y-106899998D01*
X168225036Y-107014696D01*
X168045974Y-107167258D01*
X167900116Y-107351822D01*
X167793067Y-107561295D01*
X167728941Y-107787627D01*
X167521451Y-107787627D01*
X167521451Y-107150000D01*
X167515659Y-107091190D01*
X167498504Y-107034640D01*
X167470647Y-106982523D01*
X167433158Y-106936842D01*
X167387477Y-106899353D01*
X167335360Y-106871496D01*
X167278810Y-106854341D01*
X167220000Y-106848549D01*
X166675000Y-106848549D01*
X166675000Y-104853528D01*
X166696050Y-104832478D01*
X166761713Y-104734207D01*
X166784899Y-104678231D01*
X168458807Y-106352139D01*
X168470550Y-106366448D01*
X168527651Y-106413309D01*
X168592798Y-106448131D01*
X168663485Y-106469574D01*
X168718579Y-106475000D01*
X168718581Y-106475000D01*
X168736997Y-106476814D01*
X168755413Y-106475000D01*
X178821584Y-106475000D01*
X178840000Y-106476814D01*
X178858416Y-106475000D01*
X178858419Y-106475000D01*
X178913513Y-106469574D01*
X178984200Y-106448131D01*
X179049347Y-106413309D01*
X179106448Y-106366448D01*
X179118195Y-106352134D01*
X179622084Y-105848245D01*
X179630905Y-105850000D01*
X179749095Y-105850000D01*
X179865014Y-105826942D01*
X179974207Y-105781713D01*
X180072478Y-105716050D01*
X180156050Y-105632478D01*
X180221713Y-105534207D01*
X180266942Y-105425014D01*
X180290000Y-105309095D01*
X180290000Y-105190905D01*
X180266942Y-105074986D01*
X180221713Y-104965793D01*
X180156050Y-104867522D01*
X180072478Y-104783950D01*
X179974207Y-104718287D01*
X179865014Y-104673058D01*
X179749095Y-104650000D01*
X179630905Y-104650000D01*
X179514986Y-104673058D01*
X179405793Y-104718287D01*
X179367201Y-104744074D01*
X179316050Y-104667522D01*
X179232478Y-104583950D01*
X179134207Y-104518287D01*
X179025014Y-104473058D01*
X178909095Y-104450000D01*
X178790905Y-104450000D01*
X178782084Y-104451755D01*
X178778196Y-104447867D01*
X178766449Y-104433553D01*
X178709348Y-104386692D01*
X178644201Y-104351870D01*
X178573514Y-104330427D01*
X178518420Y-104325001D01*
X178518417Y-104325001D01*
X178500001Y-104323187D01*
X178481585Y-104325001D01*
X176226039Y-104325001D01*
X176286040Y-104265000D01*
X176344095Y-104265000D01*
X176460014Y-104241942D01*
X176569207Y-104196713D01*
X176667478Y-104131050D01*
X176751050Y-104047478D01*
X176816713Y-103949207D01*
X176861942Y-103840014D01*
X176885000Y-103724095D01*
X176885000Y-103605905D01*
X176861942Y-103489986D01*
X176816713Y-103380793D01*
X176751050Y-103282522D01*
X176710000Y-103241472D01*
X176710000Y-102511040D01*
X179096041Y-100125000D01*
X179465262Y-100125000D01*
X179486136Y-100127056D01*
X179507010Y-100125000D01*
X179886472Y-100125000D01*
X179927522Y-100166050D01*
X180025793Y-100231713D01*
X180134986Y-100276942D01*
X180250905Y-100300000D01*
X180369095Y-100300000D01*
X180485014Y-100276942D01*
X180594207Y-100231713D01*
X180692478Y-100166050D01*
X180776050Y-100082478D01*
X180841713Y-99984207D01*
X180886942Y-99875014D01*
X180910000Y-99759095D01*
X180910000Y-99640905D01*
X180886942Y-99524986D01*
X180841713Y-99415793D01*
X180776050Y-99317522D01*
X180692478Y-99233950D01*
X180594207Y-99168287D01*
X180485014Y-99123058D01*
X180369095Y-99100000D01*
X180250905Y-99100000D01*
X180134986Y-99123058D01*
X180025793Y-99168287D01*
X179927522Y-99233950D01*
X179911136Y-99250336D01*
X179911136Y-96901465D01*
X180315101Y-97305431D01*
G36*
X158347862Y-96121809D02*
G01*
X158333553Y-96133552D01*
X158321811Y-96147860D01*
X158286691Y-96190654D01*
X158260315Y-96240000D01*
X158251870Y-96255800D01*
X158232525Y-96319573D01*
X158230427Y-96326488D01*
X158223186Y-96400000D01*
X158225001Y-96418426D01*
X158225001Y-97173549D01*
X157500000Y-97173549D01*
X157441190Y-97179341D01*
X157384640Y-97196496D01*
X157332523Y-97224353D01*
X157286842Y-97261842D01*
X157249353Y-97307523D01*
X157221496Y-97359640D01*
X157204341Y-97416190D01*
X157198549Y-97475000D01*
X157198549Y-97775000D01*
X156368416Y-97775000D01*
X156350000Y-97773186D01*
X156331584Y-97775000D01*
X156331581Y-97775000D01*
X156276487Y-97780426D01*
X156205800Y-97801869D01*
X156190588Y-97810000D01*
X156140653Y-97836690D01*
X156118343Y-97855000D01*
X156083552Y-97883552D01*
X156071809Y-97897861D01*
X155747866Y-98221805D01*
X155733552Y-98233552D01*
X155686691Y-98290654D01*
X155651869Y-98355801D01*
X155630426Y-98426488D01*
X155625905Y-98472396D01*
X155623186Y-98500000D01*
X155625000Y-98518416D01*
X155625001Y-99169129D01*
X155578076Y-99194211D01*
X155510044Y-99250044D01*
X155454211Y-99318076D01*
X155412723Y-99395694D01*
X155387175Y-99479914D01*
X155378549Y-99567500D01*
X155378549Y-99862500D01*
X155387175Y-99950086D01*
X155412723Y-100034306D01*
X155454211Y-100111924D01*
X155459409Y-100118258D01*
X155431315Y-100141315D01*
X155387577Y-100194609D01*
X155355077Y-100255413D01*
X155335064Y-100321388D01*
X155328306Y-100390000D01*
X155330000Y-100572500D01*
X155417500Y-100660000D01*
X155975000Y-100660000D01*
X155975000Y-100640000D01*
X156025000Y-100640000D01*
X156025000Y-100660000D01*
X156582500Y-100660000D01*
X156670000Y-100572500D01*
X156671694Y-100390000D01*
X156664936Y-100321388D01*
X156644923Y-100255413D01*
X156612423Y-100194609D01*
X156568685Y-100141315D01*
X156540591Y-100118258D01*
X156545789Y-100111924D01*
X156587277Y-100034306D01*
X156612825Y-99950086D01*
X156621451Y-99862500D01*
X156621451Y-99567500D01*
X156612825Y-99479914D01*
X156587277Y-99395694D01*
X156545789Y-99318076D01*
X156489956Y-99250044D01*
X156421924Y-99194211D01*
X156375000Y-99169129D01*
X156375000Y-98655329D01*
X156505330Y-98525000D01*
X157198549Y-98525000D01*
X157198549Y-98825000D01*
X157204341Y-98883810D01*
X157221496Y-98940360D01*
X157249353Y-98992477D01*
X157286842Y-99038158D01*
X157332523Y-99075647D01*
X157384640Y-99103504D01*
X157441190Y-99120659D01*
X157500000Y-99126451D01*
X159500000Y-99126451D01*
X159558810Y-99120659D01*
X159615360Y-99103504D01*
X159667477Y-99075647D01*
X159713158Y-99038158D01*
X159750647Y-98992477D01*
X159778504Y-98940360D01*
X159795659Y-98883810D01*
X159801451Y-98825000D01*
X159801451Y-97475000D01*
X159795659Y-97416190D01*
X159778504Y-97359640D01*
X159750647Y-97307523D01*
X159713158Y-97261842D01*
X159667477Y-97224353D01*
X159615360Y-97196496D01*
X159558810Y-97179341D01*
X159500000Y-97173549D01*
X158975000Y-97173549D01*
X158975000Y-96555329D01*
X159342725Y-96187604D01*
X159869739Y-96187604D01*
X159910137Y-96332184D01*
X159984363Y-96481448D01*
X160086283Y-96613363D01*
X160211980Y-96722860D01*
X160356623Y-96805730D01*
X160514654Y-96858790D01*
X160559392Y-96864529D01*
X160458952Y-96906132D01*
X160356586Y-96974531D01*
X160269531Y-97061586D01*
X160201132Y-97163952D01*
X160154019Y-97277694D01*
X160130000Y-97398443D01*
X160130000Y-97521557D01*
X160154019Y-97642306D01*
X160201132Y-97756048D01*
X160269531Y-97858414D01*
X160356586Y-97945469D01*
X160458952Y-98013868D01*
X160572694Y-98060981D01*
X160693443Y-98085000D01*
X160816557Y-98085000D01*
X160937306Y-98060981D01*
X161051048Y-98013868D01*
X161153414Y-97945469D01*
X161240469Y-97858414D01*
X161308868Y-97756048D01*
X161355981Y-97642306D01*
X161380000Y-97521557D01*
X161380000Y-97398443D01*
X161355981Y-97277694D01*
X161308868Y-97163952D01*
X161240469Y-97061586D01*
X161153414Y-96974531D01*
X161051048Y-96906132D01*
X160987959Y-96880000D01*
X161230000Y-96880000D01*
X161230000Y-96055000D01*
X161280000Y-96055000D01*
X161280000Y-96880000D01*
X161830000Y-96880000D01*
X161995346Y-96858790D01*
X162153377Y-96805730D01*
X162298020Y-96722860D01*
X162423717Y-96613363D01*
X162525637Y-96481448D01*
X162599863Y-96332184D01*
X162640261Y-96187604D01*
X162567090Y-96055000D01*
X161280000Y-96055000D01*
X161230000Y-96055000D01*
X159942910Y-96055000D01*
X159869739Y-96187604D01*
X159342725Y-96187604D01*
X160055330Y-95475000D01*
X160064369Y-95475000D01*
X159984363Y-95578552D01*
X159910137Y-95727816D01*
X159869739Y-95872396D01*
X159942910Y-96005000D01*
X161230000Y-96005000D01*
X161230000Y-95985000D01*
X161280000Y-95985000D01*
X161280000Y-96005000D01*
X162567090Y-96005000D01*
X162640261Y-95872396D01*
X162599863Y-95727816D01*
X162525637Y-95578552D01*
X162445631Y-95475000D01*
X163155746Y-95475000D01*
X163067522Y-95533950D01*
X162983950Y-95617522D01*
X162918287Y-95715793D01*
X162873058Y-95824986D01*
X162850000Y-95940905D01*
X162850000Y-96059095D01*
X162873058Y-96175014D01*
X162918287Y-96284207D01*
X162983950Y-96382478D01*
X163067522Y-96466050D01*
X163165793Y-96531713D01*
X163274986Y-96576942D01*
X163390905Y-96600000D01*
X163509095Y-96600000D01*
X163625014Y-96576942D01*
X163734207Y-96531713D01*
X163832478Y-96466050D01*
X163873528Y-96425000D01*
X164129133Y-96425000D01*
X164150000Y-96427055D01*
X164170867Y-96425000D01*
X164170874Y-96425000D01*
X164233314Y-96418850D01*
X164313427Y-96394548D01*
X164387260Y-96355084D01*
X164451974Y-96301974D01*
X164465283Y-96285757D01*
X164688011Y-96063029D01*
X164690086Y-96062825D01*
X164774306Y-96037277D01*
X164851924Y-95995789D01*
X164919956Y-95939956D01*
X164940000Y-95915533D01*
X164960044Y-95939956D01*
X165028076Y-95995789D01*
X165105694Y-96037277D01*
X165189914Y-96062825D01*
X165277500Y-96071451D01*
X165572500Y-96071451D01*
X165660086Y-96062825D01*
X165744306Y-96037277D01*
X165821924Y-95995789D01*
X165889956Y-95939956D01*
X165945789Y-95871924D01*
X165970871Y-95825000D01*
X166575000Y-95825000D01*
X166575001Y-97676471D01*
X166533950Y-97717522D01*
X166495544Y-97775000D01*
X163020866Y-97775000D01*
X162999999Y-97772945D01*
X162979132Y-97775000D01*
X162979126Y-97775000D01*
X162925098Y-97780321D01*
X162916685Y-97781150D01*
X162892383Y-97788522D01*
X162836573Y-97805452D01*
X162762740Y-97844916D01*
X162741020Y-97862741D01*
X162719194Y-97880654D01*
X162698026Y-97898026D01*
X162684721Y-97914238D01*
X162164243Y-98434717D01*
X162148026Y-98448026D01*
X162094916Y-98512741D01*
X162055452Y-98586574D01*
X162044752Y-98621847D01*
X162034453Y-98655800D01*
X162031150Y-98666687D01*
X162025000Y-98729127D01*
X162025000Y-98729133D01*
X162022945Y-98750000D01*
X162025000Y-98770867D01*
X162025001Y-103179123D01*
X162022945Y-103200000D01*
X162031150Y-103283314D01*
X162043796Y-103325000D01*
X162055453Y-103363427D01*
X162094917Y-103437260D01*
X162148027Y-103501974D01*
X162164239Y-103515279D01*
X163434716Y-104785756D01*
X163448026Y-104801974D01*
X163512740Y-104855084D01*
X163586573Y-104894548D01*
X163666686Y-104918850D01*
X163729126Y-104925000D01*
X163729133Y-104925000D01*
X163750000Y-104927055D01*
X163770867Y-104925000D01*
X165825000Y-104925000D01*
X165825001Y-106848549D01*
X165520000Y-106848549D01*
X165461190Y-106854341D01*
X165404640Y-106871496D01*
X165352523Y-106899353D01*
X165306842Y-106936842D01*
X165269353Y-106982523D01*
X165241496Y-107034640D01*
X165224341Y-107091190D01*
X165218549Y-107150000D01*
X165218549Y-108850000D01*
X165223473Y-108900000D01*
X165100000Y-108900000D01*
X165100000Y-107000000D01*
X165098079Y-106980491D01*
X165091501Y-106959656D01*
X164606501Y-105859656D01*
X164596872Y-105842581D01*
X164584097Y-105827712D01*
X164568666Y-105815620D01*
X164551174Y-105806772D01*
X164532291Y-105801506D01*
X164513949Y-105800006D01*
X155100000Y-105898944D01*
X155100000Y-104827604D01*
X155939739Y-104827604D01*
X155980137Y-104972184D01*
X156054363Y-105121448D01*
X156156283Y-105253363D01*
X156281980Y-105362860D01*
X156426623Y-105445730D01*
X156584654Y-105498790D01*
X156750000Y-105520000D01*
X157050000Y-105520000D01*
X157050000Y-104695000D01*
X157100000Y-104695000D01*
X157100000Y-105520000D01*
X157400000Y-105520000D01*
X157565346Y-105498790D01*
X157723377Y-105445730D01*
X157868020Y-105362860D01*
X157993717Y-105253363D01*
X158095637Y-105121448D01*
X158169863Y-104972184D01*
X158210261Y-104827604D01*
X159869739Y-104827604D01*
X159910137Y-104972184D01*
X159984363Y-105121448D01*
X160086283Y-105253363D01*
X160211980Y-105362860D01*
X160356623Y-105445730D01*
X160514654Y-105498790D01*
X160680000Y-105520000D01*
X161230000Y-105520000D01*
X161230000Y-104695000D01*
X161280000Y-104695000D01*
X161280000Y-105520000D01*
X161830000Y-105520000D01*
X161995346Y-105498790D01*
X162153377Y-105445730D01*
X162298020Y-105362860D01*
X162423717Y-105253363D01*
X162525637Y-105121448D01*
X162599863Y-104972184D01*
X162640261Y-104827604D01*
X162567090Y-104695000D01*
X161280000Y-104695000D01*
X161230000Y-104695000D01*
X159942910Y-104695000D01*
X159869739Y-104827604D01*
X158210261Y-104827604D01*
X158137090Y-104695000D01*
X157100000Y-104695000D01*
X157050000Y-104695000D01*
X156012910Y-104695000D01*
X155939739Y-104827604D01*
X155100000Y-104827604D01*
X155100000Y-104512396D01*
X155939739Y-104512396D01*
X156012910Y-104645000D01*
X157050000Y-104645000D01*
X157050000Y-103820000D01*
X157100000Y-103820000D01*
X157100000Y-104645000D01*
X158137090Y-104645000D01*
X158210261Y-104512396D01*
X159869739Y-104512396D01*
X159942910Y-104645000D01*
X161230000Y-104645000D01*
X161230000Y-103820000D01*
X161280000Y-103820000D01*
X161280000Y-104645000D01*
X162567090Y-104645000D01*
X162640261Y-104512396D01*
X162599863Y-104367816D01*
X162525637Y-104218552D01*
X162423717Y-104086637D01*
X162298020Y-103977140D01*
X162153377Y-103894270D01*
X161995346Y-103841210D01*
X161830000Y-103820000D01*
X161280000Y-103820000D01*
X161230000Y-103820000D01*
X160987959Y-103820000D01*
X161051048Y-103793868D01*
X161153414Y-103725469D01*
X161240469Y-103638414D01*
X161308868Y-103536048D01*
X161355981Y-103422306D01*
X161380000Y-103301557D01*
X161380000Y-103178443D01*
X161355981Y-103057694D01*
X161308868Y-102943952D01*
X161240469Y-102841586D01*
X161153414Y-102754531D01*
X161051048Y-102686132D01*
X160937306Y-102639019D01*
X160816557Y-102615000D01*
X160693443Y-102615000D01*
X160572694Y-102639019D01*
X160458952Y-102686132D01*
X160356586Y-102754531D01*
X160269531Y-102841586D01*
X160201132Y-102943952D01*
X160154019Y-103057694D01*
X160130000Y-103178443D01*
X160130000Y-103301557D01*
X160154019Y-103422306D01*
X160201132Y-103536048D01*
X160269531Y-103638414D01*
X160356586Y-103725469D01*
X160458952Y-103793868D01*
X160559392Y-103835471D01*
X160514654Y-103841210D01*
X160356623Y-103894270D01*
X160211980Y-103977140D01*
X160086283Y-104086637D01*
X159984363Y-104218552D01*
X159910137Y-104367816D01*
X159869739Y-104512396D01*
X158210261Y-104512396D01*
X158169863Y-104367816D01*
X158095637Y-104218552D01*
X157993717Y-104086637D01*
X157868020Y-103977140D01*
X157723377Y-103894270D01*
X157565346Y-103841210D01*
X157400000Y-103820000D01*
X157100000Y-103820000D01*
X157050000Y-103820000D01*
X156750000Y-103820000D01*
X156584654Y-103841210D01*
X156426623Y-103894270D01*
X156281980Y-103977140D01*
X156156283Y-104086637D01*
X156054363Y-104218552D01*
X155980137Y-104367816D01*
X155939739Y-104512396D01*
X155100000Y-104512396D01*
X155100000Y-103325000D01*
X157148306Y-103325000D01*
X157155064Y-103393612D01*
X157175077Y-103459587D01*
X157207577Y-103520391D01*
X157251315Y-103573685D01*
X157304609Y-103617423D01*
X157365413Y-103649923D01*
X157431388Y-103669936D01*
X157500000Y-103676694D01*
X158387500Y-103675000D01*
X158475000Y-103587500D01*
X158475000Y-102675000D01*
X158525000Y-102675000D01*
X158525000Y-103587500D01*
X158612500Y-103675000D01*
X159500000Y-103676694D01*
X159568612Y-103669936D01*
X159634587Y-103649923D01*
X159695391Y-103617423D01*
X159748685Y-103573685D01*
X159792423Y-103520391D01*
X159824923Y-103459587D01*
X159844936Y-103393612D01*
X159851694Y-103325000D01*
X159850000Y-102762500D01*
X159762500Y-102675000D01*
X158525000Y-102675000D01*
X158475000Y-102675000D01*
X157237500Y-102675000D01*
X157150000Y-102762500D01*
X157148306Y-103325000D01*
X155100000Y-103325000D01*
X155100000Y-101975000D01*
X157148306Y-101975000D01*
X157150000Y-102537500D01*
X157237500Y-102625000D01*
X158475000Y-102625000D01*
X158475000Y-101712500D01*
X158525000Y-101712500D01*
X158525000Y-102625000D01*
X159762500Y-102625000D01*
X159850000Y-102537500D01*
X159851694Y-101975000D01*
X159844936Y-101906388D01*
X159824923Y-101840413D01*
X159792423Y-101779609D01*
X159748685Y-101726315D01*
X159695391Y-101682577D01*
X159634587Y-101650077D01*
X159568612Y-101630064D01*
X159500000Y-101623306D01*
X158612500Y-101625000D01*
X158525000Y-101712500D01*
X158475000Y-101712500D01*
X158387500Y-101625000D01*
X157500000Y-101623306D01*
X157431388Y-101630064D01*
X157365413Y-101650077D01*
X157304609Y-101682577D01*
X157251315Y-101726315D01*
X157207577Y-101779609D01*
X157175077Y-101840413D01*
X157155064Y-101906388D01*
X157148306Y-101975000D01*
X155100000Y-101975000D01*
X155100000Y-100980000D01*
X155328306Y-100980000D01*
X155335064Y-101048612D01*
X155355077Y-101114587D01*
X155387577Y-101175391D01*
X155431315Y-101228685D01*
X155484609Y-101272423D01*
X155545413Y-101304923D01*
X155611388Y-101324936D01*
X155680000Y-101331694D01*
X155887500Y-101330000D01*
X155975000Y-101242500D01*
X155975000Y-100710000D01*
X156025000Y-100710000D01*
X156025000Y-101242500D01*
X156112500Y-101330000D01*
X156320000Y-101331694D01*
X156388612Y-101324936D01*
X156454587Y-101304923D01*
X156515391Y-101272423D01*
X156568685Y-101228685D01*
X156612423Y-101175391D01*
X156644923Y-101114587D01*
X156664936Y-101048612D01*
X156671694Y-100980000D01*
X156670000Y-100797500D01*
X156582500Y-100710000D01*
X156025000Y-100710000D01*
X155975000Y-100710000D01*
X155417500Y-100710000D01*
X155330000Y-100797500D01*
X155328306Y-100980000D01*
X155100000Y-100980000D01*
X155100000Y-96187604D01*
X155939739Y-96187604D01*
X155980137Y-96332184D01*
X156054363Y-96481448D01*
X156156283Y-96613363D01*
X156281980Y-96722860D01*
X156426623Y-96805730D01*
X156584654Y-96858790D01*
X156750000Y-96880000D01*
X157050000Y-96880000D01*
X157050000Y-96055000D01*
X157100000Y-96055000D01*
X157100000Y-96880000D01*
X157400000Y-96880000D01*
X157565346Y-96858790D01*
X157723377Y-96805730D01*
X157868020Y-96722860D01*
X157993717Y-96613363D01*
X158095637Y-96481448D01*
X158169863Y-96332184D01*
X158210261Y-96187604D01*
X158137090Y-96055000D01*
X157100000Y-96055000D01*
X157050000Y-96055000D01*
X156012910Y-96055000D01*
X155939739Y-96187604D01*
X155100000Y-96187604D01*
X155100000Y-95872396D01*
X155939739Y-95872396D01*
X156012910Y-96005000D01*
X157050000Y-96005000D01*
X157050000Y-95180000D01*
X157100000Y-95180000D01*
X157100000Y-96005000D01*
X158137090Y-96005000D01*
X158210261Y-95872396D01*
X158169863Y-95727816D01*
X158095637Y-95578552D01*
X157993717Y-95446637D01*
X157868020Y-95337140D01*
X157723377Y-95254270D01*
X157565346Y-95201210D01*
X157400000Y-95180000D01*
X157100000Y-95180000D01*
X157050000Y-95180000D01*
X156750000Y-95180000D01*
X156584654Y-95201210D01*
X156426623Y-95254270D01*
X156281980Y-95337140D01*
X156156283Y-95446637D01*
X156054363Y-95578552D01*
X155980137Y-95727816D01*
X155939739Y-95872396D01*
X155100000Y-95872396D01*
X155100000Y-95100000D01*
X159369670Y-95100000D01*
X158347862Y-96121809D01*
G37*
X158347862Y-96121809D02*
X158333553Y-96133552D01*
X158321811Y-96147860D01*
X158286691Y-96190654D01*
X158260315Y-96240000D01*
X158251870Y-96255800D01*
X158232525Y-96319573D01*
X158230427Y-96326488D01*
X158223186Y-96400000D01*
X158225001Y-96418426D01*
X158225001Y-97173549D01*
X157500000Y-97173549D01*
X157441190Y-97179341D01*
X157384640Y-97196496D01*
X157332523Y-97224353D01*
X157286842Y-97261842D01*
X157249353Y-97307523D01*
X157221496Y-97359640D01*
X157204341Y-97416190D01*
X157198549Y-97475000D01*
X157198549Y-97775000D01*
X156368416Y-97775000D01*
X156350000Y-97773186D01*
X156331584Y-97775000D01*
X156331581Y-97775000D01*
X156276487Y-97780426D01*
X156205800Y-97801869D01*
X156190588Y-97810000D01*
X156140653Y-97836690D01*
X156118343Y-97855000D01*
X156083552Y-97883552D01*
X156071809Y-97897861D01*
X155747866Y-98221805D01*
X155733552Y-98233552D01*
X155686691Y-98290654D01*
X155651869Y-98355801D01*
X155630426Y-98426488D01*
X155625905Y-98472396D01*
X155623186Y-98500000D01*
X155625000Y-98518416D01*
X155625001Y-99169129D01*
X155578076Y-99194211D01*
X155510044Y-99250044D01*
X155454211Y-99318076D01*
X155412723Y-99395694D01*
X155387175Y-99479914D01*
X155378549Y-99567500D01*
X155378549Y-99862500D01*
X155387175Y-99950086D01*
X155412723Y-100034306D01*
X155454211Y-100111924D01*
X155459409Y-100118258D01*
X155431315Y-100141315D01*
X155387577Y-100194609D01*
X155355077Y-100255413D01*
X155335064Y-100321388D01*
X155328306Y-100390000D01*
X155330000Y-100572500D01*
X155417500Y-100660000D01*
X155975000Y-100660000D01*
X155975000Y-100640000D01*
X156025000Y-100640000D01*
X156025000Y-100660000D01*
X156582500Y-100660000D01*
X156670000Y-100572500D01*
X156671694Y-100390000D01*
X156664936Y-100321388D01*
X156644923Y-100255413D01*
X156612423Y-100194609D01*
X156568685Y-100141315D01*
X156540591Y-100118258D01*
X156545789Y-100111924D01*
X156587277Y-100034306D01*
X156612825Y-99950086D01*
X156621451Y-99862500D01*
X156621451Y-99567500D01*
X156612825Y-99479914D01*
X156587277Y-99395694D01*
X156545789Y-99318076D01*
X156489956Y-99250044D01*
X156421924Y-99194211D01*
X156375000Y-99169129D01*
X156375000Y-98655329D01*
X156505330Y-98525000D01*
X157198549Y-98525000D01*
X157198549Y-98825000D01*
X157204341Y-98883810D01*
X157221496Y-98940360D01*
X157249353Y-98992477D01*
X157286842Y-99038158D01*
X157332523Y-99075647D01*
X157384640Y-99103504D01*
X157441190Y-99120659D01*
X157500000Y-99126451D01*
X159500000Y-99126451D01*
X159558810Y-99120659D01*
X159615360Y-99103504D01*
X159667477Y-99075647D01*
X159713158Y-99038158D01*
X159750647Y-98992477D01*
X159778504Y-98940360D01*
X159795659Y-98883810D01*
X159801451Y-98825000D01*
X159801451Y-97475000D01*
X159795659Y-97416190D01*
X159778504Y-97359640D01*
X159750647Y-97307523D01*
X159713158Y-97261842D01*
X159667477Y-97224353D01*
X159615360Y-97196496D01*
X159558810Y-97179341D01*
X159500000Y-97173549D01*
X158975000Y-97173549D01*
X158975000Y-96555329D01*
X159342725Y-96187604D01*
X159869739Y-96187604D01*
X159910137Y-96332184D01*
X159984363Y-96481448D01*
X160086283Y-96613363D01*
X160211980Y-96722860D01*
X160356623Y-96805730D01*
X160514654Y-96858790D01*
X160559392Y-96864529D01*
X160458952Y-96906132D01*
X160356586Y-96974531D01*
X160269531Y-97061586D01*
X160201132Y-97163952D01*
X160154019Y-97277694D01*
X160130000Y-97398443D01*
X160130000Y-97521557D01*
X160154019Y-97642306D01*
X160201132Y-97756048D01*
X160269531Y-97858414D01*
X160356586Y-97945469D01*
X160458952Y-98013868D01*
X160572694Y-98060981D01*
X160693443Y-98085000D01*
X160816557Y-98085000D01*
X160937306Y-98060981D01*
X161051048Y-98013868D01*
X161153414Y-97945469D01*
X161240469Y-97858414D01*
X161308868Y-97756048D01*
X161355981Y-97642306D01*
X161380000Y-97521557D01*
X161380000Y-97398443D01*
X161355981Y-97277694D01*
X161308868Y-97163952D01*
X161240469Y-97061586D01*
X161153414Y-96974531D01*
X161051048Y-96906132D01*
X160987959Y-96880000D01*
X161230000Y-96880000D01*
X161230000Y-96055000D01*
X161280000Y-96055000D01*
X161280000Y-96880000D01*
X161830000Y-96880000D01*
X161995346Y-96858790D01*
X162153377Y-96805730D01*
X162298020Y-96722860D01*
X162423717Y-96613363D01*
X162525637Y-96481448D01*
X162599863Y-96332184D01*
X162640261Y-96187604D01*
X162567090Y-96055000D01*
X161280000Y-96055000D01*
X161230000Y-96055000D01*
X159942910Y-96055000D01*
X159869739Y-96187604D01*
X159342725Y-96187604D01*
X160055330Y-95475000D01*
X160064369Y-95475000D01*
X159984363Y-95578552D01*
X159910137Y-95727816D01*
X159869739Y-95872396D01*
X159942910Y-96005000D01*
X161230000Y-96005000D01*
X161230000Y-95985000D01*
X161280000Y-95985000D01*
X161280000Y-96005000D01*
X162567090Y-96005000D01*
X162640261Y-95872396D01*
X162599863Y-95727816D01*
X162525637Y-95578552D01*
X162445631Y-95475000D01*
X163155746Y-95475000D01*
X163067522Y-95533950D01*
X162983950Y-95617522D01*
X162918287Y-95715793D01*
X162873058Y-95824986D01*
X162850000Y-95940905D01*
X162850000Y-96059095D01*
X162873058Y-96175014D01*
X162918287Y-96284207D01*
X162983950Y-96382478D01*
X163067522Y-96466050D01*
X163165793Y-96531713D01*
X163274986Y-96576942D01*
X163390905Y-96600000D01*
X163509095Y-96600000D01*
X163625014Y-96576942D01*
X163734207Y-96531713D01*
X163832478Y-96466050D01*
X163873528Y-96425000D01*
X164129133Y-96425000D01*
X164150000Y-96427055D01*
X164170867Y-96425000D01*
X164170874Y-96425000D01*
X164233314Y-96418850D01*
X164313427Y-96394548D01*
X164387260Y-96355084D01*
X164451974Y-96301974D01*
X164465283Y-96285757D01*
X164688011Y-96063029D01*
X164690086Y-96062825D01*
X164774306Y-96037277D01*
X164851924Y-95995789D01*
X164919956Y-95939956D01*
X164940000Y-95915533D01*
X164960044Y-95939956D01*
X165028076Y-95995789D01*
X165105694Y-96037277D01*
X165189914Y-96062825D01*
X165277500Y-96071451D01*
X165572500Y-96071451D01*
X165660086Y-96062825D01*
X165744306Y-96037277D01*
X165821924Y-95995789D01*
X165889956Y-95939956D01*
X165945789Y-95871924D01*
X165970871Y-95825000D01*
X166575000Y-95825000D01*
X166575001Y-97676471D01*
X166533950Y-97717522D01*
X166495544Y-97775000D01*
X163020866Y-97775000D01*
X162999999Y-97772945D01*
X162979132Y-97775000D01*
X162979126Y-97775000D01*
X162925098Y-97780321D01*
X162916685Y-97781150D01*
X162892383Y-97788522D01*
X162836573Y-97805452D01*
X162762740Y-97844916D01*
X162741020Y-97862741D01*
X162719194Y-97880654D01*
X162698026Y-97898026D01*
X162684721Y-97914238D01*
X162164243Y-98434717D01*
X162148026Y-98448026D01*
X162094916Y-98512741D01*
X162055452Y-98586574D01*
X162044752Y-98621847D01*
X162034453Y-98655800D01*
X162031150Y-98666687D01*
X162025000Y-98729127D01*
X162025000Y-98729133D01*
X162022945Y-98750000D01*
X162025000Y-98770867D01*
X162025001Y-103179123D01*
X162022945Y-103200000D01*
X162031150Y-103283314D01*
X162043796Y-103325000D01*
X162055453Y-103363427D01*
X162094917Y-103437260D01*
X162148027Y-103501974D01*
X162164239Y-103515279D01*
X163434716Y-104785756D01*
X163448026Y-104801974D01*
X163512740Y-104855084D01*
X163586573Y-104894548D01*
X163666686Y-104918850D01*
X163729126Y-104925000D01*
X163729133Y-104925000D01*
X163750000Y-104927055D01*
X163770867Y-104925000D01*
X165825000Y-104925000D01*
X165825001Y-106848549D01*
X165520000Y-106848549D01*
X165461190Y-106854341D01*
X165404640Y-106871496D01*
X165352523Y-106899353D01*
X165306842Y-106936842D01*
X165269353Y-106982523D01*
X165241496Y-107034640D01*
X165224341Y-107091190D01*
X165218549Y-107150000D01*
X165218549Y-108850000D01*
X165223473Y-108900000D01*
X165100000Y-108900000D01*
X165100000Y-107000000D01*
X165098079Y-106980491D01*
X165091501Y-106959656D01*
X164606501Y-105859656D01*
X164596872Y-105842581D01*
X164584097Y-105827712D01*
X164568666Y-105815620D01*
X164551174Y-105806772D01*
X164532291Y-105801506D01*
X164513949Y-105800006D01*
X155100000Y-105898944D01*
X155100000Y-104827604D01*
X155939739Y-104827604D01*
X155980137Y-104972184D01*
X156054363Y-105121448D01*
X156156283Y-105253363D01*
X156281980Y-105362860D01*
X156426623Y-105445730D01*
X156584654Y-105498790D01*
X156750000Y-105520000D01*
X157050000Y-105520000D01*
X157050000Y-104695000D01*
X157100000Y-104695000D01*
X157100000Y-105520000D01*
X157400000Y-105520000D01*
X157565346Y-105498790D01*
X157723377Y-105445730D01*
X157868020Y-105362860D01*
X157993717Y-105253363D01*
X158095637Y-105121448D01*
X158169863Y-104972184D01*
X158210261Y-104827604D01*
X159869739Y-104827604D01*
X159910137Y-104972184D01*
X159984363Y-105121448D01*
X160086283Y-105253363D01*
X160211980Y-105362860D01*
X160356623Y-105445730D01*
X160514654Y-105498790D01*
X160680000Y-105520000D01*
X161230000Y-105520000D01*
X161230000Y-104695000D01*
X161280000Y-104695000D01*
X161280000Y-105520000D01*
X161830000Y-105520000D01*
X161995346Y-105498790D01*
X162153377Y-105445730D01*
X162298020Y-105362860D01*
X162423717Y-105253363D01*
X162525637Y-105121448D01*
X162599863Y-104972184D01*
X162640261Y-104827604D01*
X162567090Y-104695000D01*
X161280000Y-104695000D01*
X161230000Y-104695000D01*
X159942910Y-104695000D01*
X159869739Y-104827604D01*
X158210261Y-104827604D01*
X158137090Y-104695000D01*
X157100000Y-104695000D01*
X157050000Y-104695000D01*
X156012910Y-104695000D01*
X155939739Y-104827604D01*
X155100000Y-104827604D01*
X155100000Y-104512396D01*
X155939739Y-104512396D01*
X156012910Y-104645000D01*
X157050000Y-104645000D01*
X157050000Y-103820000D01*
X157100000Y-103820000D01*
X157100000Y-104645000D01*
X158137090Y-104645000D01*
X158210261Y-104512396D01*
X159869739Y-104512396D01*
X159942910Y-104645000D01*
X161230000Y-104645000D01*
X161230000Y-103820000D01*
X161280000Y-103820000D01*
X161280000Y-104645000D01*
X162567090Y-104645000D01*
X162640261Y-104512396D01*
X162599863Y-104367816D01*
X162525637Y-104218552D01*
X162423717Y-104086637D01*
X162298020Y-103977140D01*
X162153377Y-103894270D01*
X161995346Y-103841210D01*
X161830000Y-103820000D01*
X161280000Y-103820000D01*
X161230000Y-103820000D01*
X160987959Y-103820000D01*
X161051048Y-103793868D01*
X161153414Y-103725469D01*
X161240469Y-103638414D01*
X161308868Y-103536048D01*
X161355981Y-103422306D01*
X161380000Y-103301557D01*
X161380000Y-103178443D01*
X161355981Y-103057694D01*
X161308868Y-102943952D01*
X161240469Y-102841586D01*
X161153414Y-102754531D01*
X161051048Y-102686132D01*
X160937306Y-102639019D01*
X160816557Y-102615000D01*
X160693443Y-102615000D01*
X160572694Y-102639019D01*
X160458952Y-102686132D01*
X160356586Y-102754531D01*
X160269531Y-102841586D01*
X160201132Y-102943952D01*
X160154019Y-103057694D01*
X160130000Y-103178443D01*
X160130000Y-103301557D01*
X160154019Y-103422306D01*
X160201132Y-103536048D01*
X160269531Y-103638414D01*
X160356586Y-103725469D01*
X160458952Y-103793868D01*
X160559392Y-103835471D01*
X160514654Y-103841210D01*
X160356623Y-103894270D01*
X160211980Y-103977140D01*
X160086283Y-104086637D01*
X159984363Y-104218552D01*
X159910137Y-104367816D01*
X159869739Y-104512396D01*
X158210261Y-104512396D01*
X158169863Y-104367816D01*
X158095637Y-104218552D01*
X157993717Y-104086637D01*
X157868020Y-103977140D01*
X157723377Y-103894270D01*
X157565346Y-103841210D01*
X157400000Y-103820000D01*
X157100000Y-103820000D01*
X157050000Y-103820000D01*
X156750000Y-103820000D01*
X156584654Y-103841210D01*
X156426623Y-103894270D01*
X156281980Y-103977140D01*
X156156283Y-104086637D01*
X156054363Y-104218552D01*
X155980137Y-104367816D01*
X155939739Y-104512396D01*
X155100000Y-104512396D01*
X155100000Y-103325000D01*
X157148306Y-103325000D01*
X157155064Y-103393612D01*
X157175077Y-103459587D01*
X157207577Y-103520391D01*
X157251315Y-103573685D01*
X157304609Y-103617423D01*
X157365413Y-103649923D01*
X157431388Y-103669936D01*
X157500000Y-103676694D01*
X158387500Y-103675000D01*
X158475000Y-103587500D01*
X158475000Y-102675000D01*
X158525000Y-102675000D01*
X158525000Y-103587500D01*
X158612500Y-103675000D01*
X159500000Y-103676694D01*
X159568612Y-103669936D01*
X159634587Y-103649923D01*
X159695391Y-103617423D01*
X159748685Y-103573685D01*
X159792423Y-103520391D01*
X159824923Y-103459587D01*
X159844936Y-103393612D01*
X159851694Y-103325000D01*
X159850000Y-102762500D01*
X159762500Y-102675000D01*
X158525000Y-102675000D01*
X158475000Y-102675000D01*
X157237500Y-102675000D01*
X157150000Y-102762500D01*
X157148306Y-103325000D01*
X155100000Y-103325000D01*
X155100000Y-101975000D01*
X157148306Y-101975000D01*
X157150000Y-102537500D01*
X157237500Y-102625000D01*
X158475000Y-102625000D01*
X158475000Y-101712500D01*
X158525000Y-101712500D01*
X158525000Y-102625000D01*
X159762500Y-102625000D01*
X159850000Y-102537500D01*
X159851694Y-101975000D01*
X159844936Y-101906388D01*
X159824923Y-101840413D01*
X159792423Y-101779609D01*
X159748685Y-101726315D01*
X159695391Y-101682577D01*
X159634587Y-101650077D01*
X159568612Y-101630064D01*
X159500000Y-101623306D01*
X158612500Y-101625000D01*
X158525000Y-101712500D01*
X158475000Y-101712500D01*
X158387500Y-101625000D01*
X157500000Y-101623306D01*
X157431388Y-101630064D01*
X157365413Y-101650077D01*
X157304609Y-101682577D01*
X157251315Y-101726315D01*
X157207577Y-101779609D01*
X157175077Y-101840413D01*
X157155064Y-101906388D01*
X157148306Y-101975000D01*
X155100000Y-101975000D01*
X155100000Y-100980000D01*
X155328306Y-100980000D01*
X155335064Y-101048612D01*
X155355077Y-101114587D01*
X155387577Y-101175391D01*
X155431315Y-101228685D01*
X155484609Y-101272423D01*
X155545413Y-101304923D01*
X155611388Y-101324936D01*
X155680000Y-101331694D01*
X155887500Y-101330000D01*
X155975000Y-101242500D01*
X155975000Y-100710000D01*
X156025000Y-100710000D01*
X156025000Y-101242500D01*
X156112500Y-101330000D01*
X156320000Y-101331694D01*
X156388612Y-101324936D01*
X156454587Y-101304923D01*
X156515391Y-101272423D01*
X156568685Y-101228685D01*
X156612423Y-101175391D01*
X156644923Y-101114587D01*
X156664936Y-101048612D01*
X156671694Y-100980000D01*
X156670000Y-100797500D01*
X156582500Y-100710000D01*
X156025000Y-100710000D01*
X155975000Y-100710000D01*
X155417500Y-100710000D01*
X155330000Y-100797500D01*
X155328306Y-100980000D01*
X155100000Y-100980000D01*
X155100000Y-96187604D01*
X155939739Y-96187604D01*
X155980137Y-96332184D01*
X156054363Y-96481448D01*
X156156283Y-96613363D01*
X156281980Y-96722860D01*
X156426623Y-96805730D01*
X156584654Y-96858790D01*
X156750000Y-96880000D01*
X157050000Y-96880000D01*
X157050000Y-96055000D01*
X157100000Y-96055000D01*
X157100000Y-96880000D01*
X157400000Y-96880000D01*
X157565346Y-96858790D01*
X157723377Y-96805730D01*
X157868020Y-96722860D01*
X157993717Y-96613363D01*
X158095637Y-96481448D01*
X158169863Y-96332184D01*
X158210261Y-96187604D01*
X158137090Y-96055000D01*
X157100000Y-96055000D01*
X157050000Y-96055000D01*
X156012910Y-96055000D01*
X155939739Y-96187604D01*
X155100000Y-96187604D01*
X155100000Y-95872396D01*
X155939739Y-95872396D01*
X156012910Y-96005000D01*
X157050000Y-96005000D01*
X157050000Y-95180000D01*
X157100000Y-95180000D01*
X157100000Y-96005000D01*
X158137090Y-96005000D01*
X158210261Y-95872396D01*
X158169863Y-95727816D01*
X158095637Y-95578552D01*
X157993717Y-95446637D01*
X157868020Y-95337140D01*
X157723377Y-95254270D01*
X157565346Y-95201210D01*
X157400000Y-95180000D01*
X157100000Y-95180000D01*
X157050000Y-95180000D01*
X156750000Y-95180000D01*
X156584654Y-95201210D01*
X156426623Y-95254270D01*
X156281980Y-95337140D01*
X156156283Y-95446637D01*
X156054363Y-95578552D01*
X155980137Y-95727816D01*
X155939739Y-95872396D01*
X155100000Y-95872396D01*
X155100000Y-95100000D01*
X159369670Y-95100000D01*
X158347862Y-96121809D01*
G36*
X165147862Y-99778191D02*
G01*
X170321810Y-104952140D01*
X170333553Y-104966449D01*
X170390654Y-105013310D01*
X170455801Y-105048132D01*
X170526488Y-105069575D01*
X170581582Y-105075001D01*
X170581585Y-105075001D01*
X170600001Y-105076815D01*
X170618417Y-105075001D01*
X175901461Y-105075001D01*
X175833950Y-105142512D01*
X175768287Y-105240783D01*
X175723058Y-105349976D01*
X175718080Y-105375000D01*
X169155331Y-105375000D01*
X168772540Y-104992210D01*
X168816942Y-104885014D01*
X168840000Y-104769095D01*
X168840000Y-104650905D01*
X168816942Y-104534986D01*
X168771713Y-104425793D01*
X168706050Y-104327522D01*
X168622478Y-104243950D01*
X168524207Y-104178287D01*
X168415014Y-104133058D01*
X168299095Y-104110000D01*
X168180905Y-104110000D01*
X168064986Y-104133058D01*
X167955793Y-104178287D01*
X167857522Y-104243950D01*
X167773950Y-104327522D01*
X167708287Y-104425793D01*
X167674556Y-104507228D01*
X164924998Y-101757671D01*
X164924998Y-100371047D01*
X164932476Y-100366050D01*
X165016048Y-100282478D01*
X165081711Y-100184207D01*
X165126940Y-100075014D01*
X165149998Y-99959095D01*
X165149998Y-99840905D01*
X165135506Y-99768051D01*
X165147862Y-99778191D01*
G37*
X165147862Y-99778191D02*
X170321810Y-104952140D01*
X170333553Y-104966449D01*
X170390654Y-105013310D01*
X170455801Y-105048132D01*
X170526488Y-105069575D01*
X170581582Y-105075001D01*
X170581585Y-105075001D01*
X170600001Y-105076815D01*
X170618417Y-105075001D01*
X175901461Y-105075001D01*
X175833950Y-105142512D01*
X175768287Y-105240783D01*
X175723058Y-105349976D01*
X175718080Y-105375000D01*
X169155331Y-105375000D01*
X168772540Y-104992210D01*
X168816942Y-104885014D01*
X168840000Y-104769095D01*
X168840000Y-104650905D01*
X168816942Y-104534986D01*
X168771713Y-104425793D01*
X168706050Y-104327522D01*
X168622478Y-104243950D01*
X168524207Y-104178287D01*
X168415014Y-104133058D01*
X168299095Y-104110000D01*
X168180905Y-104110000D01*
X168064986Y-104133058D01*
X167955793Y-104178287D01*
X167857522Y-104243950D01*
X167773950Y-104327522D01*
X167708287Y-104425793D01*
X167674556Y-104507228D01*
X164924998Y-101757671D01*
X164924998Y-100371047D01*
X164932476Y-100366050D01*
X165016048Y-100282478D01*
X165081711Y-100184207D01*
X165126940Y-100075014D01*
X165149998Y-99959095D01*
X165149998Y-99840905D01*
X165135506Y-99768051D01*
X165147862Y-99778191D01*
G36*
X162955794Y-100671714D02*
G01*
X163064987Y-100716943D01*
X163180906Y-100740001D01*
X163299096Y-100740001D01*
X163307917Y-100738246D01*
X163735000Y-101165330D01*
X163735001Y-102871572D01*
X163733186Y-102889998D01*
X163738501Y-102943952D01*
X163740427Y-102963511D01*
X163761870Y-103034198D01*
X163796692Y-103099345D01*
X163843553Y-103156446D01*
X163857862Y-103168189D01*
X164471757Y-103782084D01*
X164470002Y-103790905D01*
X164470002Y-103909095D01*
X164493060Y-104025014D01*
X164513765Y-104075000D01*
X163926040Y-104075000D01*
X162875000Y-103023960D01*
X162875000Y-100617729D01*
X162955794Y-100671714D01*
G37*
X162955794Y-100671714D02*
X163064987Y-100716943D01*
X163180906Y-100740001D01*
X163299096Y-100740001D01*
X163307917Y-100738246D01*
X163735000Y-101165330D01*
X163735001Y-102871572D01*
X163733186Y-102889998D01*
X163738501Y-102943952D01*
X163740427Y-102963511D01*
X163761870Y-103034198D01*
X163796692Y-103099345D01*
X163843553Y-103156446D01*
X163857862Y-103168189D01*
X164471757Y-103782084D01*
X164470002Y-103790905D01*
X164470002Y-103909095D01*
X164493060Y-104025014D01*
X164513765Y-104075000D01*
X163926040Y-104075000D01*
X162875000Y-103023960D01*
X162875000Y-100617729D01*
X162955794Y-100671714D01*
G36*
X179061137Y-99275000D02*
G01*
X178940867Y-99275000D01*
X178920000Y-99272945D01*
X178899133Y-99275000D01*
X178899126Y-99275000D01*
X178836686Y-99281150D01*
X178756572Y-99305452D01*
X178733991Y-99317522D01*
X178682740Y-99344916D01*
X178618026Y-99398026D01*
X178604721Y-99414238D01*
X175999239Y-102019721D01*
X175983027Y-102033026D01*
X175929917Y-102097740D01*
X175890453Y-102171573D01*
X175866150Y-102251686D01*
X175857945Y-102335000D01*
X175860001Y-102355876D01*
X175860000Y-103241472D01*
X175818950Y-103282522D01*
X175753287Y-103380793D01*
X175708058Y-103489986D01*
X175685000Y-103605905D01*
X175685000Y-103663960D01*
X175673960Y-103675000D01*
X175276041Y-103675000D01*
X172315283Y-100714243D01*
X172301974Y-100698026D01*
X172237260Y-100644916D01*
X172163427Y-100605452D01*
X172083314Y-100581150D01*
X172020874Y-100575000D01*
X172020867Y-100575000D01*
X172000000Y-100572945D01*
X171979133Y-100575000D01*
X171973528Y-100575000D01*
X171932478Y-100533950D01*
X171834207Y-100468287D01*
X171725014Y-100423058D01*
X171609095Y-100400000D01*
X171490905Y-100400000D01*
X171374986Y-100423058D01*
X171265793Y-100468287D01*
X171167522Y-100533950D01*
X171083950Y-100617522D01*
X171018287Y-100715793D01*
X170973058Y-100824986D01*
X170950000Y-100940905D01*
X170950000Y-101059095D01*
X170973058Y-101175014D01*
X171018287Y-101284207D01*
X171083950Y-101382478D01*
X171167522Y-101466050D01*
X171265793Y-101531713D01*
X171339308Y-101562164D01*
X171333950Y-101567522D01*
X171328953Y-101575000D01*
X170815330Y-101575000D01*
X170565000Y-101324671D01*
X170565000Y-98915329D01*
X171015330Y-98465000D01*
X171100235Y-98465000D01*
X171062287Y-98521793D01*
X171017058Y-98630986D01*
X170994000Y-98746905D01*
X170994000Y-98865095D01*
X171017058Y-98981014D01*
X171062287Y-99090207D01*
X171127950Y-99188478D01*
X171211522Y-99272050D01*
X171309793Y-99337713D01*
X171418986Y-99382942D01*
X171534905Y-99406000D01*
X171653095Y-99406000D01*
X171769014Y-99382942D01*
X171878207Y-99337713D01*
X171976478Y-99272050D01*
X172060050Y-99188478D01*
X172065047Y-99181000D01*
X173025584Y-99181000D01*
X173044000Y-99182814D01*
X173062416Y-99181000D01*
X173062419Y-99181000D01*
X173117513Y-99175574D01*
X173188200Y-99154131D01*
X173253347Y-99119309D01*
X173310448Y-99072448D01*
X173322195Y-99058134D01*
X174785330Y-97595000D01*
X175705992Y-97595000D01*
X175665412Y-97607310D01*
X175604609Y-97639810D01*
X175551315Y-97683548D01*
X175392455Y-97842882D01*
X175391705Y-97842132D01*
X175376632Y-97857205D01*
X175372743Y-97860411D01*
X175369694Y-97864143D01*
X175356346Y-97877491D01*
X175357149Y-97878294D01*
X174748179Y-98489080D01*
X174748179Y-98499471D01*
X174686049Y-98550690D01*
X174684598Y-98549239D01*
X174669525Y-98564312D01*
X174665636Y-98567518D01*
X174662587Y-98571250D01*
X174649239Y-98584598D01*
X174650583Y-98585942D01*
X174599736Y-98648179D01*
X174589080Y-98648179D01*
X173978293Y-99257148D01*
X173977491Y-99256346D01*
X173962419Y-99271418D01*
X173958529Y-99274625D01*
X173955479Y-99278358D01*
X173942132Y-99291705D01*
X173942882Y-99292455D01*
X173783548Y-99451315D01*
X173739810Y-99504609D01*
X173707310Y-99565412D01*
X173687296Y-99631388D01*
X173680539Y-99700000D01*
X173687296Y-99768612D01*
X173707310Y-99834588D01*
X173739810Y-99895391D01*
X173783548Y-99948685D01*
X173942882Y-100107545D01*
X173942132Y-100108295D01*
X173957205Y-100123368D01*
X173960411Y-100127257D01*
X173964143Y-100130306D01*
X173977491Y-100143654D01*
X173978294Y-100142851D01*
X174589080Y-100751821D01*
X174599471Y-100751821D01*
X174650690Y-100813951D01*
X174649239Y-100815402D01*
X174664312Y-100830475D01*
X174667518Y-100834364D01*
X174671250Y-100837413D01*
X174684598Y-100850761D01*
X174685942Y-100849417D01*
X174748179Y-100900264D01*
X174748179Y-100910920D01*
X175357148Y-101521707D01*
X175356346Y-101522509D01*
X175371418Y-101537581D01*
X175374625Y-101541471D01*
X175378358Y-101544521D01*
X175391705Y-101557868D01*
X175392455Y-101557118D01*
X175551315Y-101716452D01*
X175604609Y-101760190D01*
X175665412Y-101792690D01*
X175731388Y-101812704D01*
X175800000Y-101819461D01*
X175868612Y-101812704D01*
X175934588Y-101792690D01*
X175995391Y-101760190D01*
X176048685Y-101716452D01*
X176207545Y-101557118D01*
X176208295Y-101557868D01*
X176223368Y-101542795D01*
X176227257Y-101539589D01*
X176230306Y-101535857D01*
X176243654Y-101522509D01*
X176242851Y-101521706D01*
X176851821Y-100910920D01*
X176851821Y-100900529D01*
X176913951Y-100849310D01*
X176915402Y-100850761D01*
X176930475Y-100835688D01*
X176934364Y-100832482D01*
X176937413Y-100828750D01*
X176950761Y-100815402D01*
X176949417Y-100814058D01*
X177000264Y-100751821D01*
X177010920Y-100751821D01*
X177621707Y-100142852D01*
X177622509Y-100143654D01*
X177637581Y-100128582D01*
X177641471Y-100125375D01*
X177644521Y-100121642D01*
X177657868Y-100108295D01*
X177657118Y-100107545D01*
X177816452Y-99948685D01*
X177860190Y-99895391D01*
X177892690Y-99834588D01*
X177912704Y-99768612D01*
X177919461Y-99700000D01*
X177912704Y-99631388D01*
X177892690Y-99565412D01*
X177860190Y-99504609D01*
X177816452Y-99451315D01*
X177657118Y-99292455D01*
X177657868Y-99291705D01*
X177642795Y-99276632D01*
X177639589Y-99272743D01*
X177635857Y-99269694D01*
X177622509Y-99256346D01*
X177621706Y-99257149D01*
X177010920Y-98648179D01*
X177000529Y-98648179D01*
X176949310Y-98586049D01*
X176950761Y-98584598D01*
X176935688Y-98569525D01*
X176932482Y-98565636D01*
X176928750Y-98562587D01*
X176915402Y-98549239D01*
X176914058Y-98550583D01*
X176851821Y-98499736D01*
X176851821Y-98489080D01*
X176242852Y-97878293D01*
X176243654Y-97877491D01*
X176228582Y-97862419D01*
X176225375Y-97858529D01*
X176221642Y-97855479D01*
X176208295Y-97842132D01*
X176207545Y-97842882D01*
X176048685Y-97683548D01*
X175995391Y-97639810D01*
X175934588Y-97607310D01*
X175894008Y-97595000D01*
X178171584Y-97595000D01*
X178190000Y-97596814D01*
X178208416Y-97595000D01*
X178208419Y-97595000D01*
X178263513Y-97589574D01*
X178334200Y-97568131D01*
X178399347Y-97533309D01*
X178456448Y-97486448D01*
X178468195Y-97472134D01*
X178502084Y-97438245D01*
X178510905Y-97440000D01*
X178629095Y-97440000D01*
X178745014Y-97416942D01*
X178854207Y-97371713D01*
X178952478Y-97306050D01*
X179036050Y-97222478D01*
X179061136Y-97184934D01*
X179061137Y-99275000D01*
G37*
X179061137Y-99275000D02*
X178940867Y-99275000D01*
X178920000Y-99272945D01*
X178899133Y-99275000D01*
X178899126Y-99275000D01*
X178836686Y-99281150D01*
X178756572Y-99305452D01*
X178733991Y-99317522D01*
X178682740Y-99344916D01*
X178618026Y-99398026D01*
X178604721Y-99414238D01*
X175999239Y-102019721D01*
X175983027Y-102033026D01*
X175929917Y-102097740D01*
X175890453Y-102171573D01*
X175866150Y-102251686D01*
X175857945Y-102335000D01*
X175860001Y-102355876D01*
X175860000Y-103241472D01*
X175818950Y-103282522D01*
X175753287Y-103380793D01*
X175708058Y-103489986D01*
X175685000Y-103605905D01*
X175685000Y-103663960D01*
X175673960Y-103675000D01*
X175276041Y-103675000D01*
X172315283Y-100714243D01*
X172301974Y-100698026D01*
X172237260Y-100644916D01*
X172163427Y-100605452D01*
X172083314Y-100581150D01*
X172020874Y-100575000D01*
X172020867Y-100575000D01*
X172000000Y-100572945D01*
X171979133Y-100575000D01*
X171973528Y-100575000D01*
X171932478Y-100533950D01*
X171834207Y-100468287D01*
X171725014Y-100423058D01*
X171609095Y-100400000D01*
X171490905Y-100400000D01*
X171374986Y-100423058D01*
X171265793Y-100468287D01*
X171167522Y-100533950D01*
X171083950Y-100617522D01*
X171018287Y-100715793D01*
X170973058Y-100824986D01*
X170950000Y-100940905D01*
X170950000Y-101059095D01*
X170973058Y-101175014D01*
X171018287Y-101284207D01*
X171083950Y-101382478D01*
X171167522Y-101466050D01*
X171265793Y-101531713D01*
X171339308Y-101562164D01*
X171333950Y-101567522D01*
X171328953Y-101575000D01*
X170815330Y-101575000D01*
X170565000Y-101324671D01*
X170565000Y-98915329D01*
X171015330Y-98465000D01*
X171100235Y-98465000D01*
X171062287Y-98521793D01*
X171017058Y-98630986D01*
X170994000Y-98746905D01*
X170994000Y-98865095D01*
X171017058Y-98981014D01*
X171062287Y-99090207D01*
X171127950Y-99188478D01*
X171211522Y-99272050D01*
X171309793Y-99337713D01*
X171418986Y-99382942D01*
X171534905Y-99406000D01*
X171653095Y-99406000D01*
X171769014Y-99382942D01*
X171878207Y-99337713D01*
X171976478Y-99272050D01*
X172060050Y-99188478D01*
X172065047Y-99181000D01*
X173025584Y-99181000D01*
X173044000Y-99182814D01*
X173062416Y-99181000D01*
X173062419Y-99181000D01*
X173117513Y-99175574D01*
X173188200Y-99154131D01*
X173253347Y-99119309D01*
X173310448Y-99072448D01*
X173322195Y-99058134D01*
X174785330Y-97595000D01*
X175705992Y-97595000D01*
X175665412Y-97607310D01*
X175604609Y-97639810D01*
X175551315Y-97683548D01*
X175392455Y-97842882D01*
X175391705Y-97842132D01*
X175376632Y-97857205D01*
X175372743Y-97860411D01*
X175369694Y-97864143D01*
X175356346Y-97877491D01*
X175357149Y-97878294D01*
X174748179Y-98489080D01*
X174748179Y-98499471D01*
X174686049Y-98550690D01*
X174684598Y-98549239D01*
X174669525Y-98564312D01*
X174665636Y-98567518D01*
X174662587Y-98571250D01*
X174649239Y-98584598D01*
X174650583Y-98585942D01*
X174599736Y-98648179D01*
X174589080Y-98648179D01*
X173978293Y-99257148D01*
X173977491Y-99256346D01*
X173962419Y-99271418D01*
X173958529Y-99274625D01*
X173955479Y-99278358D01*
X173942132Y-99291705D01*
X173942882Y-99292455D01*
X173783548Y-99451315D01*
X173739810Y-99504609D01*
X173707310Y-99565412D01*
X173687296Y-99631388D01*
X173680539Y-99700000D01*
X173687296Y-99768612D01*
X173707310Y-99834588D01*
X173739810Y-99895391D01*
X173783548Y-99948685D01*
X173942882Y-100107545D01*
X173942132Y-100108295D01*
X173957205Y-100123368D01*
X173960411Y-100127257D01*
X173964143Y-100130306D01*
X173977491Y-100143654D01*
X173978294Y-100142851D01*
X174589080Y-100751821D01*
X174599471Y-100751821D01*
X174650690Y-100813951D01*
X174649239Y-100815402D01*
X174664312Y-100830475D01*
X174667518Y-100834364D01*
X174671250Y-100837413D01*
X174684598Y-100850761D01*
X174685942Y-100849417D01*
X174748179Y-100900264D01*
X174748179Y-100910920D01*
X175357148Y-101521707D01*
X175356346Y-101522509D01*
X175371418Y-101537581D01*
X175374625Y-101541471D01*
X175378358Y-101544521D01*
X175391705Y-101557868D01*
X175392455Y-101557118D01*
X175551315Y-101716452D01*
X175604609Y-101760190D01*
X175665412Y-101792690D01*
X175731388Y-101812704D01*
X175800000Y-101819461D01*
X175868612Y-101812704D01*
X175934588Y-101792690D01*
X175995391Y-101760190D01*
X176048685Y-101716452D01*
X176207545Y-101557118D01*
X176208295Y-101557868D01*
X176223368Y-101542795D01*
X176227257Y-101539589D01*
X176230306Y-101535857D01*
X176243654Y-101522509D01*
X176242851Y-101521706D01*
X176851821Y-100910920D01*
X176851821Y-100900529D01*
X176913951Y-100849310D01*
X176915402Y-100850761D01*
X176930475Y-100835688D01*
X176934364Y-100832482D01*
X176937413Y-100828750D01*
X176950761Y-100815402D01*
X176949417Y-100814058D01*
X177000264Y-100751821D01*
X177010920Y-100751821D01*
X177621707Y-100142852D01*
X177622509Y-100143654D01*
X177637581Y-100128582D01*
X177641471Y-100125375D01*
X177644521Y-100121642D01*
X177657868Y-100108295D01*
X177657118Y-100107545D01*
X177816452Y-99948685D01*
X177860190Y-99895391D01*
X177892690Y-99834588D01*
X177912704Y-99768612D01*
X177919461Y-99700000D01*
X177912704Y-99631388D01*
X177892690Y-99565412D01*
X177860190Y-99504609D01*
X177816452Y-99451315D01*
X177657118Y-99292455D01*
X177657868Y-99291705D01*
X177642795Y-99276632D01*
X177639589Y-99272743D01*
X177635857Y-99269694D01*
X177622509Y-99256346D01*
X177621706Y-99257149D01*
X177010920Y-98648179D01*
X177000529Y-98648179D01*
X176949310Y-98586049D01*
X176950761Y-98584598D01*
X176935688Y-98569525D01*
X176932482Y-98565636D01*
X176928750Y-98562587D01*
X176915402Y-98549239D01*
X176914058Y-98550583D01*
X176851821Y-98499736D01*
X176851821Y-98489080D01*
X176242852Y-97878293D01*
X176243654Y-97877491D01*
X176228582Y-97862419D01*
X176225375Y-97858529D01*
X176221642Y-97855479D01*
X176208295Y-97842132D01*
X176207545Y-97842882D01*
X176048685Y-97683548D01*
X175995391Y-97639810D01*
X175934588Y-97607310D01*
X175894008Y-97595000D01*
X178171584Y-97595000D01*
X178190000Y-97596814D01*
X178208416Y-97595000D01*
X178208419Y-97595000D01*
X178263513Y-97589574D01*
X178334200Y-97568131D01*
X178399347Y-97533309D01*
X178456448Y-97486448D01*
X178468195Y-97472134D01*
X178502084Y-97438245D01*
X178510905Y-97440000D01*
X178629095Y-97440000D01*
X178745014Y-97416942D01*
X178854207Y-97371713D01*
X178952478Y-97306050D01*
X179036050Y-97222478D01*
X179061136Y-97184934D01*
X179061137Y-99275000D01*
G36*
X167480348Y-98802108D02*
G01*
X167478534Y-98820527D01*
X167480348Y-98838943D01*
X167480348Y-98838945D01*
X167480349Y-98838955D01*
X167480348Y-101050019D01*
X165775000Y-99344671D01*
X165775000Y-99271047D01*
X165782478Y-99266050D01*
X165866050Y-99182478D01*
X165931713Y-99084207D01*
X165976942Y-98975014D01*
X166000000Y-98859095D01*
X166000000Y-98740905D01*
X165976945Y-98625000D01*
X166705746Y-98625000D01*
X166715793Y-98631713D01*
X166824986Y-98676942D01*
X166940905Y-98700000D01*
X167059095Y-98700000D01*
X167175014Y-98676942D01*
X167284207Y-98631713D01*
X167382478Y-98566050D01*
X167466050Y-98482478D01*
X167480348Y-98461079D01*
X167480348Y-98802108D01*
G37*
X167480348Y-98802108D02*
X167478534Y-98820527D01*
X167480348Y-98838943D01*
X167480348Y-98838945D01*
X167480349Y-98838955D01*
X167480348Y-101050019D01*
X165775000Y-99344671D01*
X165775000Y-99271047D01*
X165782478Y-99266050D01*
X165866050Y-99182478D01*
X165931713Y-99084207D01*
X165976942Y-98975014D01*
X166000000Y-98859095D01*
X166000000Y-98740905D01*
X165976945Y-98625000D01*
X166705746Y-98625000D01*
X166715793Y-98631713D01*
X166824986Y-98676942D01*
X166940905Y-98700000D01*
X167059095Y-98700000D01*
X167175014Y-98676942D01*
X167284207Y-98631713D01*
X167382478Y-98566050D01*
X167466050Y-98482478D01*
X167480348Y-98461079D01*
X167480348Y-98802108D01*
G36*
X164800000Y-98740905D02*
G01*
X164800000Y-98859095D01*
X164823058Y-98975014D01*
X164868287Y-99084207D01*
X164933950Y-99182478D01*
X165017522Y-99266050D01*
X165025001Y-99271047D01*
X165025001Y-99481574D01*
X165023186Y-99500000D01*
X165026445Y-99533081D01*
X165016048Y-99517522D01*
X164932476Y-99433950D01*
X164834205Y-99368287D01*
X164725012Y-99323058D01*
X164609093Y-99300000D01*
X164490903Y-99300000D01*
X164374984Y-99323058D01*
X164265791Y-99368287D01*
X164167520Y-99433950D01*
X164083948Y-99517522D01*
X164018285Y-99615793D01*
X163973056Y-99724986D01*
X163949998Y-99840905D01*
X163949998Y-99959095D01*
X163973056Y-100075014D01*
X164018285Y-100184207D01*
X164083948Y-100282478D01*
X164167520Y-100366050D01*
X164174998Y-100371047D01*
X164174998Y-100544669D01*
X163838246Y-100207917D01*
X163840001Y-100199096D01*
X163840001Y-100080906D01*
X163816943Y-99964987D01*
X163771714Y-99855794D01*
X163706051Y-99757523D01*
X163622479Y-99673951D01*
X163524208Y-99608288D01*
X163415015Y-99563059D01*
X163299096Y-99540001D01*
X163180906Y-99540001D01*
X163064987Y-99563059D01*
X162955794Y-99608288D01*
X162875000Y-99662273D01*
X162875000Y-98926040D01*
X163176041Y-98625000D01*
X164823055Y-98625000D01*
X164800000Y-98740905D01*
G37*
X164800000Y-98740905D02*
X164800000Y-98859095D01*
X164823058Y-98975014D01*
X164868287Y-99084207D01*
X164933950Y-99182478D01*
X165017522Y-99266050D01*
X165025001Y-99271047D01*
X165025001Y-99481574D01*
X165023186Y-99500000D01*
X165026445Y-99533081D01*
X165016048Y-99517522D01*
X164932476Y-99433950D01*
X164834205Y-99368287D01*
X164725012Y-99323058D01*
X164609093Y-99300000D01*
X164490903Y-99300000D01*
X164374984Y-99323058D01*
X164265791Y-99368287D01*
X164167520Y-99433950D01*
X164083948Y-99517522D01*
X164018285Y-99615793D01*
X163973056Y-99724986D01*
X163949998Y-99840905D01*
X163949998Y-99959095D01*
X163973056Y-100075014D01*
X164018285Y-100184207D01*
X164083948Y-100282478D01*
X164167520Y-100366050D01*
X164174998Y-100371047D01*
X164174998Y-100544669D01*
X163838246Y-100207917D01*
X163840001Y-100199096D01*
X163840001Y-100080906D01*
X163816943Y-99964987D01*
X163771714Y-99855794D01*
X163706051Y-99757523D01*
X163622479Y-99673951D01*
X163524208Y-99608288D01*
X163415015Y-99563059D01*
X163299096Y-99540001D01*
X163180906Y-99540001D01*
X163064987Y-99563059D01*
X162955794Y-99608288D01*
X162875000Y-99662273D01*
X162875000Y-98926040D01*
X163176041Y-98625000D01*
X164823055Y-98625000D01*
X164800000Y-98740905D01*
G36*
X175825000Y-99661360D02*
G01*
X175825000Y-99675000D01*
X175838640Y-99675000D01*
X175849498Y-99685858D01*
X175835355Y-99700000D01*
X175849498Y-99714143D01*
X175838640Y-99725000D01*
X175825000Y-99725000D01*
X175825000Y-99738640D01*
X175814143Y-99749498D01*
X175800000Y-99735355D01*
X175785858Y-99749498D01*
X175775000Y-99738640D01*
X175775000Y-99725000D01*
X175761360Y-99725000D01*
X175750503Y-99714143D01*
X175764645Y-99700000D01*
X175750503Y-99685858D01*
X175761360Y-99675000D01*
X175775000Y-99675000D01*
X175775000Y-99661360D01*
X175785858Y-99650503D01*
X175800000Y-99664645D01*
X175814143Y-99650503D01*
X175825000Y-99661360D01*
G37*
X175825000Y-99661360D02*
X175825000Y-99675000D01*
X175838640Y-99675000D01*
X175849498Y-99685858D01*
X175835355Y-99700000D01*
X175849498Y-99714143D01*
X175838640Y-99725000D01*
X175825000Y-99725000D01*
X175825000Y-99738640D01*
X175814143Y-99749498D01*
X175800000Y-99735355D01*
X175785858Y-99749498D01*
X175775000Y-99738640D01*
X175775000Y-99725000D01*
X175761360Y-99725000D01*
X175750503Y-99714143D01*
X175764645Y-99700000D01*
X175750503Y-99685858D01*
X175761360Y-99675000D01*
X175775000Y-99675000D01*
X175775000Y-99661360D01*
X175785858Y-99650503D01*
X175800000Y-99664645D01*
X175814143Y-99650503D01*
X175825000Y-99661360D01*
G36*
X165218549Y-93600000D02*
G01*
X165224341Y-93658810D01*
X165241496Y-93715360D01*
X165269353Y-93767477D01*
X165306842Y-93813158D01*
X165352523Y-93850647D01*
X165404640Y-93878504D01*
X165461190Y-93895659D01*
X165520000Y-93901451D01*
X167220000Y-93901451D01*
X167278810Y-93895659D01*
X167335360Y-93878504D01*
X167387477Y-93850647D01*
X167433158Y-93813158D01*
X167470647Y-93767477D01*
X167498504Y-93715360D01*
X167515659Y-93658810D01*
X167521451Y-93600000D01*
X167521451Y-92100000D01*
X167901556Y-92100000D01*
X167900116Y-92101822D01*
X167793067Y-92311295D01*
X167728941Y-92537627D01*
X167797759Y-92725000D01*
X168885000Y-92725000D01*
X168885000Y-92705000D01*
X168935000Y-92705000D01*
X168935000Y-92725000D01*
X170022241Y-92725000D01*
X170091059Y-92537627D01*
X170026933Y-92311295D01*
X169919884Y-92101822D01*
X169918444Y-92100000D01*
X170501224Y-92100000D01*
X170430884Y-92205271D01*
X170344194Y-92414557D01*
X170300000Y-92636735D01*
X170300000Y-92863265D01*
X170344194Y-93085443D01*
X170430884Y-93294729D01*
X170556737Y-93483082D01*
X170716918Y-93643263D01*
X170905271Y-93769116D01*
X171075000Y-93839421D01*
X171075000Y-93914670D01*
X169697862Y-95291809D01*
X169683553Y-95303552D01*
X169671811Y-95317860D01*
X169636691Y-95360654D01*
X169622457Y-95387284D01*
X169601870Y-95425800D01*
X169580427Y-95496487D01*
X169579992Y-95500905D01*
X169573186Y-95570000D01*
X169575001Y-95588426D01*
X169575000Y-96535000D01*
X168418415Y-96535000D01*
X168399999Y-96533186D01*
X168381583Y-96535000D01*
X168381581Y-96535000D01*
X168326487Y-96540426D01*
X168255800Y-96561869D01*
X168255798Y-96561870D01*
X168190653Y-96596691D01*
X168147858Y-96631811D01*
X168147855Y-96631814D01*
X168133552Y-96643552D01*
X168121813Y-96657856D01*
X167603209Y-97176462D01*
X167588901Y-97188204D01*
X167577159Y-97202512D01*
X167542039Y-97245306D01*
X167523723Y-97279574D01*
X167507218Y-97310452D01*
X167488635Y-97371713D01*
X167485775Y-97381140D01*
X167478534Y-97454652D01*
X167480349Y-97473078D01*
X167480349Y-97738922D01*
X167466050Y-97717522D01*
X167425000Y-97676472D01*
X167425000Y-95620867D01*
X167427055Y-95600000D01*
X167425000Y-95579133D01*
X167425000Y-95579126D01*
X167418850Y-95516686D01*
X167409424Y-95485612D01*
X167394548Y-95436572D01*
X167379828Y-95409033D01*
X167355084Y-95362740D01*
X167301974Y-95298026D01*
X167285758Y-95284718D01*
X167176040Y-95175000D01*
X167661584Y-95175000D01*
X167680000Y-95176814D01*
X167698416Y-95175000D01*
X167698419Y-95175000D01*
X167753513Y-95169574D01*
X167824200Y-95148131D01*
X167889347Y-95113309D01*
X167946448Y-95066448D01*
X167958195Y-95052134D01*
X168112084Y-94898245D01*
X168120905Y-94900000D01*
X168239095Y-94900000D01*
X168355014Y-94876942D01*
X168464207Y-94831713D01*
X168562478Y-94766050D01*
X168646050Y-94682478D01*
X168711713Y-94584207D01*
X168756942Y-94475014D01*
X168780000Y-94359095D01*
X168780000Y-94240905D01*
X168756942Y-94124986D01*
X168711713Y-94015793D01*
X168647973Y-93920400D01*
X168654236Y-93922427D01*
X168697627Y-93931058D01*
X168885000Y-93862219D01*
X168885000Y-92775000D01*
X168935000Y-92775000D01*
X168935000Y-93862219D01*
X169122373Y-93931058D01*
X169165764Y-93922427D01*
X169389579Y-93850002D01*
X169594964Y-93735304D01*
X169774026Y-93582742D01*
X169919884Y-93398178D01*
X170026933Y-93188705D01*
X170091059Y-92962373D01*
X170022241Y-92775000D01*
X168935000Y-92775000D01*
X168885000Y-92775000D01*
X167797759Y-92775000D01*
X167728941Y-92962373D01*
X167793067Y-93188705D01*
X167900116Y-93398178D01*
X168045974Y-93582742D01*
X168183600Y-93700000D01*
X168120905Y-93700000D01*
X168004986Y-93723058D01*
X167895793Y-93768287D01*
X167797522Y-93833950D01*
X167713950Y-93917522D01*
X167648287Y-94015793D01*
X167603058Y-94124986D01*
X167580000Y-94240905D01*
X167580000Y-94359095D01*
X167581755Y-94367916D01*
X167524671Y-94425000D01*
X164373607Y-94425000D01*
X165044721Y-94089443D01*
X165061311Y-94078999D01*
X165075545Y-94065520D01*
X165086876Y-94049523D01*
X165094868Y-94031623D01*
X165099215Y-94012507D01*
X165100000Y-94000000D01*
X165100000Y-92100000D01*
X165218549Y-92100000D01*
X165218549Y-93600000D01*
G37*
X165218549Y-93600000D02*
X165224341Y-93658810D01*
X165241496Y-93715360D01*
X165269353Y-93767477D01*
X165306842Y-93813158D01*
X165352523Y-93850647D01*
X165404640Y-93878504D01*
X165461190Y-93895659D01*
X165520000Y-93901451D01*
X167220000Y-93901451D01*
X167278810Y-93895659D01*
X167335360Y-93878504D01*
X167387477Y-93850647D01*
X167433158Y-93813158D01*
X167470647Y-93767477D01*
X167498504Y-93715360D01*
X167515659Y-93658810D01*
X167521451Y-93600000D01*
X167521451Y-92100000D01*
X167901556Y-92100000D01*
X167900116Y-92101822D01*
X167793067Y-92311295D01*
X167728941Y-92537627D01*
X167797759Y-92725000D01*
X168885000Y-92725000D01*
X168885000Y-92705000D01*
X168935000Y-92705000D01*
X168935000Y-92725000D01*
X170022241Y-92725000D01*
X170091059Y-92537627D01*
X170026933Y-92311295D01*
X169919884Y-92101822D01*
X169918444Y-92100000D01*
X170501224Y-92100000D01*
X170430884Y-92205271D01*
X170344194Y-92414557D01*
X170300000Y-92636735D01*
X170300000Y-92863265D01*
X170344194Y-93085443D01*
X170430884Y-93294729D01*
X170556737Y-93483082D01*
X170716918Y-93643263D01*
X170905271Y-93769116D01*
X171075000Y-93839421D01*
X171075000Y-93914670D01*
X169697862Y-95291809D01*
X169683553Y-95303552D01*
X169671811Y-95317860D01*
X169636691Y-95360654D01*
X169622457Y-95387284D01*
X169601870Y-95425800D01*
X169580427Y-95496487D01*
X169579992Y-95500905D01*
X169573186Y-95570000D01*
X169575001Y-95588426D01*
X169575000Y-96535000D01*
X168418415Y-96535000D01*
X168399999Y-96533186D01*
X168381583Y-96535000D01*
X168381581Y-96535000D01*
X168326487Y-96540426D01*
X168255800Y-96561869D01*
X168255798Y-96561870D01*
X168190653Y-96596691D01*
X168147858Y-96631811D01*
X168147855Y-96631814D01*
X168133552Y-96643552D01*
X168121813Y-96657856D01*
X167603209Y-97176462D01*
X167588901Y-97188204D01*
X167577159Y-97202512D01*
X167542039Y-97245306D01*
X167523723Y-97279574D01*
X167507218Y-97310452D01*
X167488635Y-97371713D01*
X167485775Y-97381140D01*
X167478534Y-97454652D01*
X167480349Y-97473078D01*
X167480349Y-97738922D01*
X167466050Y-97717522D01*
X167425000Y-97676472D01*
X167425000Y-95620867D01*
X167427055Y-95600000D01*
X167425000Y-95579133D01*
X167425000Y-95579126D01*
X167418850Y-95516686D01*
X167409424Y-95485612D01*
X167394548Y-95436572D01*
X167379828Y-95409033D01*
X167355084Y-95362740D01*
X167301974Y-95298026D01*
X167285758Y-95284718D01*
X167176040Y-95175000D01*
X167661584Y-95175000D01*
X167680000Y-95176814D01*
X167698416Y-95175000D01*
X167698419Y-95175000D01*
X167753513Y-95169574D01*
X167824200Y-95148131D01*
X167889347Y-95113309D01*
X167946448Y-95066448D01*
X167958195Y-95052134D01*
X168112084Y-94898245D01*
X168120905Y-94900000D01*
X168239095Y-94900000D01*
X168355014Y-94876942D01*
X168464207Y-94831713D01*
X168562478Y-94766050D01*
X168646050Y-94682478D01*
X168711713Y-94584207D01*
X168756942Y-94475014D01*
X168780000Y-94359095D01*
X168780000Y-94240905D01*
X168756942Y-94124986D01*
X168711713Y-94015793D01*
X168647973Y-93920400D01*
X168654236Y-93922427D01*
X168697627Y-93931058D01*
X168885000Y-93862219D01*
X168885000Y-92775000D01*
X168935000Y-92775000D01*
X168935000Y-93862219D01*
X169122373Y-93931058D01*
X169165764Y-93922427D01*
X169389579Y-93850002D01*
X169594964Y-93735304D01*
X169774026Y-93582742D01*
X169919884Y-93398178D01*
X170026933Y-93188705D01*
X170091059Y-92962373D01*
X170022241Y-92775000D01*
X168935000Y-92775000D01*
X168885000Y-92775000D01*
X167797759Y-92775000D01*
X167728941Y-92962373D01*
X167793067Y-93188705D01*
X167900116Y-93398178D01*
X168045974Y-93582742D01*
X168183600Y-93700000D01*
X168120905Y-93700000D01*
X168004986Y-93723058D01*
X167895793Y-93768287D01*
X167797522Y-93833950D01*
X167713950Y-93917522D01*
X167648287Y-94015793D01*
X167603058Y-94124986D01*
X167580000Y-94240905D01*
X167580000Y-94359095D01*
X167581755Y-94367916D01*
X167524671Y-94425000D01*
X164373607Y-94425000D01*
X165044721Y-94089443D01*
X165061311Y-94078999D01*
X165075545Y-94065520D01*
X165086876Y-94049523D01*
X165094868Y-94031623D01*
X165099215Y-94012507D01*
X165100000Y-94000000D01*
X165100000Y-92100000D01*
X165218549Y-92100000D01*
X165218549Y-93600000D01*
G36*
X178050884Y-92205271D02*
G01*
X177964194Y-92414557D01*
X177920000Y-92636735D01*
X177920000Y-92863265D01*
X177964194Y-93085443D01*
X178050884Y-93294729D01*
X178176737Y-93483082D01*
X178336918Y-93643263D01*
X178525271Y-93769116D01*
X178734557Y-93855806D01*
X178956735Y-93900000D01*
X179183265Y-93900000D01*
X179405443Y-93855806D01*
X179614729Y-93769116D01*
X179803082Y-93643263D01*
X179963263Y-93483082D01*
X180089116Y-93294729D01*
X180175806Y-93085443D01*
X180220000Y-92863265D01*
X180220000Y-92636735D01*
X180175806Y-92414557D01*
X180089116Y-92205271D01*
X180018776Y-92100000D01*
X180661224Y-92100000D01*
X180590884Y-92205271D01*
X180504194Y-92414557D01*
X180460000Y-92636735D01*
X180460000Y-92863265D01*
X180504194Y-93085443D01*
X180590884Y-93294729D01*
X180716737Y-93483082D01*
X180876918Y-93643263D01*
X180954183Y-93694890D01*
X180897683Y-93700454D01*
X180813463Y-93726002D01*
X180735845Y-93767490D01*
X180667813Y-93823323D01*
X180459217Y-94031919D01*
X180403384Y-94099951D01*
X180361896Y-94177569D01*
X180336348Y-94261789D01*
X180335545Y-94269945D01*
X180299375Y-94266383D01*
X180230763Y-94273140D01*
X180164787Y-94293154D01*
X180103985Y-94325654D01*
X180050690Y-94369391D01*
X179922841Y-94499636D01*
X179922841Y-94623380D01*
X180317053Y-95017592D01*
X180331195Y-95003449D01*
X180366551Y-95038805D01*
X180352408Y-95052947D01*
X180746620Y-95447159D01*
X180870364Y-95447159D01*
X181000609Y-95319310D01*
X181044346Y-95266015D01*
X181076846Y-95205213D01*
X181096860Y-95139237D01*
X181103617Y-95070625D01*
X181100055Y-95034455D01*
X181108211Y-95033652D01*
X181192431Y-95008104D01*
X181270049Y-94966616D01*
X181338081Y-94910783D01*
X181506811Y-94742053D01*
X181611724Y-94742053D01*
X181641067Y-94771397D01*
X181481968Y-94930496D01*
X181444479Y-94976177D01*
X181416622Y-95028294D01*
X181399467Y-95084844D01*
X181393675Y-95143654D01*
X181394370Y-95150713D01*
X181341573Y-95145513D01*
X181272961Y-95152271D01*
X181206985Y-95172285D01*
X181146183Y-95204785D01*
X181092888Y-95248522D01*
X180749371Y-95594434D01*
X180749371Y-95718178D01*
X181412284Y-96381091D01*
X181426427Y-96366949D01*
X181461782Y-96402304D01*
X181447639Y-96416446D01*
X182110552Y-97079359D01*
X182234296Y-97079359D01*
X182580208Y-96735842D01*
X182623945Y-96682547D01*
X182656445Y-96621745D01*
X182676459Y-96555769D01*
X182683217Y-96487157D01*
X182678017Y-96434360D01*
X182685076Y-96435055D01*
X182743886Y-96429263D01*
X182800436Y-96412108D01*
X182852553Y-96384251D01*
X182898234Y-96346762D01*
X183297008Y-95947988D01*
X183507087Y-95947988D01*
X183507087Y-96071732D01*
X184170000Y-96734645D01*
X184762202Y-96142443D01*
X184762202Y-96018699D01*
X184347975Y-95602076D01*
X184294680Y-95558339D01*
X184233877Y-95525839D01*
X184167901Y-95505825D01*
X184099289Y-95499067D01*
X184030677Y-95505825D01*
X183964701Y-95525839D01*
X183903899Y-95558339D01*
X183850604Y-95602076D01*
X183507087Y-95947988D01*
X183297008Y-95947988D01*
X183746762Y-95498234D01*
X183784251Y-95452553D01*
X183812108Y-95400436D01*
X183829263Y-95343886D01*
X183835055Y-95285076D01*
X183829263Y-95226266D01*
X183812108Y-95169716D01*
X183784251Y-95117599D01*
X183746762Y-95071918D01*
X182756812Y-94081968D01*
X182711131Y-94044479D01*
X182659014Y-94016622D01*
X182602464Y-93999467D01*
X182543654Y-93993675D01*
X182484844Y-93999467D01*
X182428294Y-94016622D01*
X182376177Y-94044479D01*
X182330496Y-94081968D01*
X182171397Y-94241067D01*
X182045248Y-94114919D01*
X182033501Y-94100605D01*
X181976400Y-94053744D01*
X181911253Y-94018922D01*
X181840566Y-93997479D01*
X181785472Y-93992053D01*
X181785469Y-93992053D01*
X181767053Y-93990239D01*
X181748637Y-93992053D01*
X181471455Y-93992053D01*
X181350268Y-93870866D01*
X181496735Y-93900000D01*
X181723265Y-93900000D01*
X181945443Y-93855806D01*
X182154729Y-93769116D01*
X182343082Y-93643263D01*
X182503263Y-93483082D01*
X182629116Y-93294729D01*
X182715806Y-93085443D01*
X182760000Y-92863265D01*
X182760000Y-92636735D01*
X182715806Y-92414557D01*
X182629116Y-92205271D01*
X182558776Y-92100000D01*
X183201224Y-92100000D01*
X183130884Y-92205271D01*
X183044194Y-92414557D01*
X183000000Y-92636735D01*
X183000000Y-92863265D01*
X183044194Y-93085443D01*
X183130884Y-93294729D01*
X183256737Y-93483082D01*
X183416918Y-93643263D01*
X183605271Y-93769116D01*
X183814557Y-93855806D01*
X184036735Y-93900000D01*
X184263265Y-93900000D01*
X184485443Y-93855806D01*
X184694729Y-93769116D01*
X184883082Y-93643263D01*
X184900000Y-93626345D01*
X184900000Y-96177798D01*
X184797557Y-96177798D01*
X184205355Y-96770000D01*
X184219498Y-96784143D01*
X184184143Y-96819498D01*
X184170000Y-96805355D01*
X184155858Y-96819498D01*
X184120503Y-96784143D01*
X184134645Y-96770000D01*
X183471732Y-96107087D01*
X183347988Y-96107087D01*
X183002076Y-96450604D01*
X182958339Y-96503899D01*
X182925839Y-96564701D01*
X182905825Y-96630677D01*
X182899067Y-96699289D01*
X182904267Y-96752086D01*
X182897208Y-96751391D01*
X182838398Y-96757183D01*
X182781848Y-96774338D01*
X182729731Y-96802195D01*
X182684050Y-96839684D01*
X182088734Y-97435000D01*
X181880016Y-97435000D01*
X182075197Y-97238458D01*
X182075197Y-97114714D01*
X181412284Y-96451801D01*
X181398142Y-96465944D01*
X181362787Y-96430589D01*
X181376929Y-96416446D01*
X180714016Y-95753533D01*
X180590272Y-95753533D01*
X180244360Y-96097050D01*
X180209661Y-96139332D01*
X180002762Y-95932433D01*
X180061713Y-95844207D01*
X180101180Y-95748924D01*
X180139340Y-95780240D01*
X180200143Y-95812740D01*
X180266119Y-95832754D01*
X180334731Y-95839511D01*
X180403343Y-95832754D01*
X180469319Y-95812740D01*
X180530121Y-95780240D01*
X180583416Y-95736503D01*
X180711265Y-95606258D01*
X180711265Y-95482514D01*
X180317053Y-95088302D01*
X180302911Y-95102445D01*
X180267556Y-95067090D01*
X180281698Y-95052947D01*
X179887486Y-94658735D01*
X179763742Y-94658735D01*
X179633497Y-94786584D01*
X179589760Y-94839879D01*
X179557260Y-94900681D01*
X179539265Y-94960000D01*
X179470905Y-94960000D01*
X179354986Y-94983058D01*
X179245793Y-95028287D01*
X179147522Y-95093950D01*
X179063950Y-95177522D01*
X178998287Y-95275793D01*
X178953058Y-95384986D01*
X178948790Y-95406443D01*
X178936572Y-95398279D01*
X178827379Y-95353050D01*
X178711460Y-95329992D01*
X178593270Y-95329992D01*
X178477351Y-95353050D01*
X178368158Y-95398279D01*
X178269887Y-95463942D01*
X178186315Y-95547514D01*
X178120652Y-95645785D01*
X178075423Y-95754978D01*
X178052365Y-95870897D01*
X178052365Y-95989087D01*
X178075423Y-96105006D01*
X178120652Y-96214199D01*
X178186315Y-96312470D01*
X178223653Y-96349808D01*
X178187522Y-96373950D01*
X178103950Y-96457522D01*
X178038287Y-96555793D01*
X177993058Y-96664986D01*
X177970000Y-96780905D01*
X177970000Y-96845000D01*
X177085329Y-96845000D01*
X177632139Y-96298191D01*
X177646447Y-96286449D01*
X177693308Y-96229348D01*
X177728130Y-96164201D01*
X177749573Y-96093514D01*
X177754999Y-96038420D01*
X177754999Y-96038417D01*
X177756813Y-96020001D01*
X177754999Y-96001585D01*
X177754999Y-93578414D01*
X177756813Y-93559998D01*
X177753907Y-93530494D01*
X177749573Y-93486486D01*
X177728130Y-93415799D01*
X177709484Y-93380914D01*
X177693308Y-93350652D01*
X177679599Y-93333947D01*
X177646447Y-93293551D01*
X177632138Y-93281808D01*
X177577217Y-93226887D01*
X177635806Y-93085443D01*
X177680000Y-92863265D01*
X177680000Y-92636735D01*
X177635806Y-92414557D01*
X177549116Y-92205271D01*
X177478776Y-92100000D01*
X178121224Y-92100000D01*
X178050884Y-92205271D01*
G37*
X178050884Y-92205271D02*
X177964194Y-92414557D01*
X177920000Y-92636735D01*
X177920000Y-92863265D01*
X177964194Y-93085443D01*
X178050884Y-93294729D01*
X178176737Y-93483082D01*
X178336918Y-93643263D01*
X178525271Y-93769116D01*
X178734557Y-93855806D01*
X178956735Y-93900000D01*
X179183265Y-93900000D01*
X179405443Y-93855806D01*
X179614729Y-93769116D01*
X179803082Y-93643263D01*
X179963263Y-93483082D01*
X180089116Y-93294729D01*
X180175806Y-93085443D01*
X180220000Y-92863265D01*
X180220000Y-92636735D01*
X180175806Y-92414557D01*
X180089116Y-92205271D01*
X180018776Y-92100000D01*
X180661224Y-92100000D01*
X180590884Y-92205271D01*
X180504194Y-92414557D01*
X180460000Y-92636735D01*
X180460000Y-92863265D01*
X180504194Y-93085443D01*
X180590884Y-93294729D01*
X180716737Y-93483082D01*
X180876918Y-93643263D01*
X180954183Y-93694890D01*
X180897683Y-93700454D01*
X180813463Y-93726002D01*
X180735845Y-93767490D01*
X180667813Y-93823323D01*
X180459217Y-94031919D01*
X180403384Y-94099951D01*
X180361896Y-94177569D01*
X180336348Y-94261789D01*
X180335545Y-94269945D01*
X180299375Y-94266383D01*
X180230763Y-94273140D01*
X180164787Y-94293154D01*
X180103985Y-94325654D01*
X180050690Y-94369391D01*
X179922841Y-94499636D01*
X179922841Y-94623380D01*
X180317053Y-95017592D01*
X180331195Y-95003449D01*
X180366551Y-95038805D01*
X180352408Y-95052947D01*
X180746620Y-95447159D01*
X180870364Y-95447159D01*
X181000609Y-95319310D01*
X181044346Y-95266015D01*
X181076846Y-95205213D01*
X181096860Y-95139237D01*
X181103617Y-95070625D01*
X181100055Y-95034455D01*
X181108211Y-95033652D01*
X181192431Y-95008104D01*
X181270049Y-94966616D01*
X181338081Y-94910783D01*
X181506811Y-94742053D01*
X181611724Y-94742053D01*
X181641067Y-94771397D01*
X181481968Y-94930496D01*
X181444479Y-94976177D01*
X181416622Y-95028294D01*
X181399467Y-95084844D01*
X181393675Y-95143654D01*
X181394370Y-95150713D01*
X181341573Y-95145513D01*
X181272961Y-95152271D01*
X181206985Y-95172285D01*
X181146183Y-95204785D01*
X181092888Y-95248522D01*
X180749371Y-95594434D01*
X180749371Y-95718178D01*
X181412284Y-96381091D01*
X181426427Y-96366949D01*
X181461782Y-96402304D01*
X181447639Y-96416446D01*
X182110552Y-97079359D01*
X182234296Y-97079359D01*
X182580208Y-96735842D01*
X182623945Y-96682547D01*
X182656445Y-96621745D01*
X182676459Y-96555769D01*
X182683217Y-96487157D01*
X182678017Y-96434360D01*
X182685076Y-96435055D01*
X182743886Y-96429263D01*
X182800436Y-96412108D01*
X182852553Y-96384251D01*
X182898234Y-96346762D01*
X183297008Y-95947988D01*
X183507087Y-95947988D01*
X183507087Y-96071732D01*
X184170000Y-96734645D01*
X184762202Y-96142443D01*
X184762202Y-96018699D01*
X184347975Y-95602076D01*
X184294680Y-95558339D01*
X184233877Y-95525839D01*
X184167901Y-95505825D01*
X184099289Y-95499067D01*
X184030677Y-95505825D01*
X183964701Y-95525839D01*
X183903899Y-95558339D01*
X183850604Y-95602076D01*
X183507087Y-95947988D01*
X183297008Y-95947988D01*
X183746762Y-95498234D01*
X183784251Y-95452553D01*
X183812108Y-95400436D01*
X183829263Y-95343886D01*
X183835055Y-95285076D01*
X183829263Y-95226266D01*
X183812108Y-95169716D01*
X183784251Y-95117599D01*
X183746762Y-95071918D01*
X182756812Y-94081968D01*
X182711131Y-94044479D01*
X182659014Y-94016622D01*
X182602464Y-93999467D01*
X182543654Y-93993675D01*
X182484844Y-93999467D01*
X182428294Y-94016622D01*
X182376177Y-94044479D01*
X182330496Y-94081968D01*
X182171397Y-94241067D01*
X182045248Y-94114919D01*
X182033501Y-94100605D01*
X181976400Y-94053744D01*
X181911253Y-94018922D01*
X181840566Y-93997479D01*
X181785472Y-93992053D01*
X181785469Y-93992053D01*
X181767053Y-93990239D01*
X181748637Y-93992053D01*
X181471455Y-93992053D01*
X181350268Y-93870866D01*
X181496735Y-93900000D01*
X181723265Y-93900000D01*
X181945443Y-93855806D01*
X182154729Y-93769116D01*
X182343082Y-93643263D01*
X182503263Y-93483082D01*
X182629116Y-93294729D01*
X182715806Y-93085443D01*
X182760000Y-92863265D01*
X182760000Y-92636735D01*
X182715806Y-92414557D01*
X182629116Y-92205271D01*
X182558776Y-92100000D01*
X183201224Y-92100000D01*
X183130884Y-92205271D01*
X183044194Y-92414557D01*
X183000000Y-92636735D01*
X183000000Y-92863265D01*
X183044194Y-93085443D01*
X183130884Y-93294729D01*
X183256737Y-93483082D01*
X183416918Y-93643263D01*
X183605271Y-93769116D01*
X183814557Y-93855806D01*
X184036735Y-93900000D01*
X184263265Y-93900000D01*
X184485443Y-93855806D01*
X184694729Y-93769116D01*
X184883082Y-93643263D01*
X184900000Y-93626345D01*
X184900000Y-96177798D01*
X184797557Y-96177798D01*
X184205355Y-96770000D01*
X184219498Y-96784143D01*
X184184143Y-96819498D01*
X184170000Y-96805355D01*
X184155858Y-96819498D01*
X184120503Y-96784143D01*
X184134645Y-96770000D01*
X183471732Y-96107087D01*
X183347988Y-96107087D01*
X183002076Y-96450604D01*
X182958339Y-96503899D01*
X182925839Y-96564701D01*
X182905825Y-96630677D01*
X182899067Y-96699289D01*
X182904267Y-96752086D01*
X182897208Y-96751391D01*
X182838398Y-96757183D01*
X182781848Y-96774338D01*
X182729731Y-96802195D01*
X182684050Y-96839684D01*
X182088734Y-97435000D01*
X181880016Y-97435000D01*
X182075197Y-97238458D01*
X182075197Y-97114714D01*
X181412284Y-96451801D01*
X181398142Y-96465944D01*
X181362787Y-96430589D01*
X181376929Y-96416446D01*
X180714016Y-95753533D01*
X180590272Y-95753533D01*
X180244360Y-96097050D01*
X180209661Y-96139332D01*
X180002762Y-95932433D01*
X180061713Y-95844207D01*
X180101180Y-95748924D01*
X180139340Y-95780240D01*
X180200143Y-95812740D01*
X180266119Y-95832754D01*
X180334731Y-95839511D01*
X180403343Y-95832754D01*
X180469319Y-95812740D01*
X180530121Y-95780240D01*
X180583416Y-95736503D01*
X180711265Y-95606258D01*
X180711265Y-95482514D01*
X180317053Y-95088302D01*
X180302911Y-95102445D01*
X180267556Y-95067090D01*
X180281698Y-95052947D01*
X179887486Y-94658735D01*
X179763742Y-94658735D01*
X179633497Y-94786584D01*
X179589760Y-94839879D01*
X179557260Y-94900681D01*
X179539265Y-94960000D01*
X179470905Y-94960000D01*
X179354986Y-94983058D01*
X179245793Y-95028287D01*
X179147522Y-95093950D01*
X179063950Y-95177522D01*
X178998287Y-95275793D01*
X178953058Y-95384986D01*
X178948790Y-95406443D01*
X178936572Y-95398279D01*
X178827379Y-95353050D01*
X178711460Y-95329992D01*
X178593270Y-95329992D01*
X178477351Y-95353050D01*
X178368158Y-95398279D01*
X178269887Y-95463942D01*
X178186315Y-95547514D01*
X178120652Y-95645785D01*
X178075423Y-95754978D01*
X178052365Y-95870897D01*
X178052365Y-95989087D01*
X178075423Y-96105006D01*
X178120652Y-96214199D01*
X178186315Y-96312470D01*
X178223653Y-96349808D01*
X178187522Y-96373950D01*
X178103950Y-96457522D01*
X178038287Y-96555793D01*
X177993058Y-96664986D01*
X177970000Y-96780905D01*
X177970000Y-96845000D01*
X177085329Y-96845000D01*
X177632139Y-96298191D01*
X177646447Y-96286449D01*
X177693308Y-96229348D01*
X177728130Y-96164201D01*
X177749573Y-96093514D01*
X177754999Y-96038420D01*
X177754999Y-96038417D01*
X177756813Y-96020001D01*
X177754999Y-96001585D01*
X177754999Y-93578414D01*
X177756813Y-93559998D01*
X177753907Y-93530494D01*
X177749573Y-93486486D01*
X177728130Y-93415799D01*
X177709484Y-93380914D01*
X177693308Y-93350652D01*
X177679599Y-93333947D01*
X177646447Y-93293551D01*
X177632138Y-93281808D01*
X177577217Y-93226887D01*
X177635806Y-93085443D01*
X177680000Y-92863265D01*
X177680000Y-92636735D01*
X177635806Y-92414557D01*
X177549116Y-92205271D01*
X177478776Y-92100000D01*
X178121224Y-92100000D01*
X178050884Y-92205271D01*
G36*
X176525001Y-94685331D02*
G01*
X176525000Y-95794669D01*
X176274693Y-96044978D01*
X176184219Y-96044978D01*
X176185694Y-96030000D01*
X176184000Y-95847500D01*
X176096500Y-95760000D01*
X175539000Y-95760000D01*
X175539000Y-95780000D01*
X175489000Y-95780000D01*
X175489000Y-95760000D01*
X175469000Y-95760000D01*
X175469000Y-95710000D01*
X175489000Y-95710000D01*
X175489000Y-95690000D01*
X175539000Y-95690000D01*
X175539000Y-95710000D01*
X176096500Y-95710000D01*
X176184000Y-95622500D01*
X176185694Y-95440000D01*
X176178936Y-95371388D01*
X176158923Y-95305413D01*
X176126423Y-95244609D01*
X176082685Y-95191315D01*
X176054591Y-95168258D01*
X176059789Y-95161924D01*
X176101277Y-95084306D01*
X176126825Y-95000086D01*
X176135451Y-94912500D01*
X176135451Y-94617500D01*
X176126825Y-94529914D01*
X176101277Y-94445694D01*
X176059789Y-94368076D01*
X176003956Y-94300044D01*
X175997810Y-94295000D01*
X176134671Y-94295000D01*
X176525001Y-94685331D01*
G37*
X176525001Y-94685331D02*
X176525000Y-95794669D01*
X176274693Y-96044978D01*
X176184219Y-96044978D01*
X176185694Y-96030000D01*
X176184000Y-95847500D01*
X176096500Y-95760000D01*
X175539000Y-95760000D01*
X175539000Y-95780000D01*
X175489000Y-95780000D01*
X175489000Y-95760000D01*
X175469000Y-95760000D01*
X175469000Y-95710000D01*
X175489000Y-95710000D01*
X175489000Y-95690000D01*
X175539000Y-95690000D01*
X175539000Y-95710000D01*
X176096500Y-95710000D01*
X176184000Y-95622500D01*
X176185694Y-95440000D01*
X176178936Y-95371388D01*
X176158923Y-95305413D01*
X176126423Y-95244609D01*
X176082685Y-95191315D01*
X176054591Y-95168258D01*
X176059789Y-95161924D01*
X176101277Y-95084306D01*
X176126825Y-95000086D01*
X176135451Y-94912500D01*
X176135451Y-94617500D01*
X176126825Y-94529914D01*
X176101277Y-94445694D01*
X176059789Y-94368076D01*
X176003956Y-94300044D01*
X175997810Y-94295000D01*
X176134671Y-94295000D01*
X176525001Y-94685331D01*
%TD*%
M02*
