M48
; DRILL file {KiCad (5.1.6)-1} date 09/21/20 22:35:51
; FORMAT={-:-/ absolute / inch / decimal}
; #@! TF.CreationDate,2020-09-21T22:35:51+08:00
; #@! TF.GenerationSoftware,Kicad,Pcbnew,(5.1.6)-1
; #@! TF.FileFunction,Plated,1,2,PTH
FMAT,2
INCH
T1C0.0079
T2C0.0118
T3C0.0236
T4C0.0394
%
G90
G05
T1
X6.8656Y-3.9252
X6.8934Y-3.8974
X6.8934Y-3.953
X6.9213Y-3.8695
X6.9213Y-3.9252
X6.9213Y-3.9809
X6.9491Y-3.8974
X6.9491Y-3.953
X6.9769Y-3.9252
T2
X6.2638Y-4.122
X6.3228Y-3.9016
X6.3236Y-4.0071
X6.4268Y-3.9425
X6.4346Y-4.0012
X6.435Y-3.7795
X6.4673Y-4.0906
X6.4783Y-3.9331
X6.4803Y-3.8976
X6.4882Y-3.689
X6.4988Y-4.0886
X6.5118Y-3.8898
X6.5394Y-3.8425
X6.5445Y-4.1122
X6.5512Y-3.7795
X6.5748Y-3.8622
X6.5866Y-3.9606
X6.5945Y-4.0335
X6.6075Y-4.2154
X6.6213Y-3.7126
X6.6236Y-4.1224
X6.6488Y-3.8626
X6.6555Y-3.7787
X6.6575Y-4.1319
X6.7016Y-4.2161
X6.7031Y-3.7169
X6.7539Y-3.9764
X6.7557Y-3.89
X6.7638Y-4.0138
X6.77Y-3.8113
X6.7736Y-4.0492
X6.7913Y-4.2008
X6.7972Y-4.0965
X6.8097Y-3.802
X6.8154Y-4.1409
X6.9016Y-3.6929
X6.9094Y-4.0768
X6.9213Y-4.1988
X6.9404Y-4.0813
X6.9409Y-4.1545
X6.9429Y-3.7539
X7.0303Y-3.8126
X7.0336Y-3.7768
X7.0413Y-4.1358
X7.0681Y-3.7622
X7.0689Y-4.0039
X7.0744Y-4.1437
X7.0807Y-3.9508
X7.0866Y-4.0236
X7.0984Y-3.9705
X7.0988Y-3.9252
X7.1063Y-4.0433
X7.1106Y-3.8516
X7.1181Y-3.9902
X7.126Y-4.065
X7.1358Y-4.0118
X7.1437Y-4.1453
X7.1555Y-4.0335
X7.1627Y-4.1228
X7.1831Y-4.0453
X7.185Y-3.7461
X7.1906Y-4.0161
X7.1988Y-3.6909
X7.2001Y-4.1602
X7.2047Y-4.063
X7.2461Y-4.1043
X7.2752Y-4.1846
X7.2756Y-3.7165
X7.2756Y-3.7441
X7.2756Y-3.7717
X7.2756Y-3.7992
X7.2756Y-3.8268
X7.2756Y-3.8543
X7.2756Y-3.8815
X7.2756Y-3.9094
X7.2756Y-3.937
X7.2756Y-3.9646
X7.2756Y-3.9921
X7.2756Y-4.0197
X7.2756Y-4.0472
X7.2756Y-4.0748
X7.2756Y-4.1024
X7.2756Y-4.1299
T4
X6.55Y-4.252
X6.65Y-4.252
X6.75Y-4.252
X6.85Y-4.252
X6.95Y-4.252
X7.05Y-4.252
X7.15Y-4.252
X7.25Y-4.252
X6.55Y-3.6516
X6.65Y-3.6516
X6.75Y-3.6516
X6.85Y-3.6516
X6.95Y-3.6516
X7.05Y-3.6516
X7.15Y-3.6516
X7.25Y-3.6516
T3
G00X6.1959Y-3.7807
M15
G01X6.1722Y-3.7807
M16
G05
G00X6.1959Y-4.1209
M15
G01X6.1722Y-4.1209
M16
G05
G00X6.3703Y-3.7807
M15
G01X6.327Y-3.7807
M16
G05
G00X6.3703Y-4.1209
M15
G01X6.327Y-4.1209
M16
G05
T0
M30
